<?xml version="1.0" encoding="UTF-8" standalone="no"?>
<!DOCTYPE svg PUBLIC "-//W3C//DTD SVG 1.1//EN" "http://www.w3.org/Graphics/SVG/1.1/DTD/svg11.dtd">
<svg xmlns="http://www.w3.org/2000/svg" xmlns:xlink="http://www.w3.org/1999/xlink" version="1.1" width="297pt" height="331pt" viewBox="0 0 297 331">
<g enable-background="new">
<g>
<clipPath id="cp0">
<path transform="matrix(1,0,0,-1,0,331)" d="M 151.2432 315.2354 L 151.2432 273.2594 C 151.2432 273.2594 124.1472 267.5364 116.9902 252.2704 C 116.9902 252.2704 107.7472 287.0914 151.2432 315.2354 " fill-rule="evenodd"/>
</clipPath>
<g clip-path="url(#cp0)">
<path transform="matrix(1,0,0,-1,0,331)" d="M 111.168 320.2354 L 156.2432 320.2354 L 156.2432 247.2704 L 111.168 247.2704 Z " fill="#95a63d"/>
</g>
<clipPath id="cp1">
<path transform="matrix(1,0,0,-1,0,331)" d="M 151.1846 315.2354 L 151.1846 273.2594 C 151.1846 273.2594 178.2816 267.5364 185.4366 252.2704 C 185.4366 252.2704 194.6816 287.0914 151.1846 315.2354 " fill-rule="evenodd"/>
</clipPath>
<g clip-path="url(#cp1)">
<path transform="matrix(1,0,0,-1,0,331)" d="M 146.1846 320.2354 L 191.2592 320.2354 L 191.2592 247.2704 L 146.1846 247.2704 Z " fill="#e47c2c"/>
</g>
<clipPath id="cp2">
<path transform="matrix(1,0,0,-1,0,331)" d="M 151.1855 155.1758 L 151.1855 197.1518 C 151.1855 197.1518 178.2835 202.8748 185.4385 218.1398 C 185.4385 218.1398 194.6815 183.3198 151.1855 155.1758 " fill-rule="evenodd"/>
</clipPath>
<g clip-path="url(#cp2)">
<path transform="matrix(1,0,0,-1,0,331)" d="M 146.1855 223.1398 L 191.2607 223.1398 L 191.2607 150.1758 L 146.1855 150.1758 Z " fill="#efdf33"/>
</g>
<clipPath id="cp3">
<path transform="matrix(1,0,0,-1,0,331)" d="M 151.2461 155.1758 L 151.2461 197.1518 C 151.2461 197.1518 124.1471 202.8748 116.9901 218.1398 C 116.9901 218.1398 107.7471 183.3198 151.2461 155.1758 " fill-rule="evenodd"/>
</clipPath>
<g clip-path="url(#cp3)">
<path transform="matrix(1,0,0,-1,0,331)" d="M 111.168 223.1398 L 156.2461 223.1398 L 156.2461 150.1758 L 111.168 150.1758 Z " fill="#c24168"/>
</g>
<clipPath id="cp4">
<path transform="matrix(1,0,0,-1,0,331)" d="M 151.2168 249.5937 C 143.2738 249.5937 136.8298 243.1517 136.8298 235.2077 C 136.8298 227.2607 143.2738 220.8167 151.2168 220.8167 C 159.1578 220.8167 165.5968 227.2607 165.5968 235.2077 C 165.5968 243.1517 159.1578 249.5937 151.2168 249.5937 " fill-rule="evenodd"/>
</clipPath>
<g clip-path="url(#cp4)">
<path transform="matrix(1,0,0,-1,0,331)" d="M 131.8298 254.5937 L 170.5968 254.5937 L 170.5968 215.8167 L 131.8298 215.8167 Z " fill="#0b0b09"/>
</g>
<clipPath id="cp5">
<path transform="matrix(1,0,0,-1,0,331)" d="M 157.9102 163.7051 L 157.9102 190.7071 C 167.1102 192.0801 175.3872 196.2351 181.8982 202.3011 C 175.9452 183.4061 165.6332 170.8881 157.9102 163.7051 M 120.6372 202.2121 C 127.2662 196.0681 135.7332 191.8891 145.1202 190.6141 L 145.1202 163.2821 C 137.4022 170.3831 126.7662 183.0191 120.6372 202.2121 M 144.8202 305.6771 L 144.8202 279.7521 C 135.7962 278.4691 127.6372 274.4991 121.1502 268.6641 C 127.2712 286.7841 137.3412 298.7831 144.8202 305.6771 M 181.1752 268.7721 C 174.7122 274.5391 166.5922 278.4691 157.6062 279.7521 L 157.6062 305.5701 C 165.0452 298.6471 175.0452 286.6571 181.1752 268.7721 M 151.2172 202.9381 C 133.4252 202.9381 118.9502 217.4121 118.9502 235.2081 C 118.9502 252.9951 133.4252 267.4681 151.2172 267.4681 C 169.0072 267.4681 183.4862 252.9951 183.4862 235.2081 C 183.4862 217.4121 169.0072 202.9381 151.2172 202.9381 M 154.3962 324.1741 L 151.2172 325.9871 L 148.0372 324.1741 C 146.1922 323.1111 102.9672 297.5791 102.9672 234.5601 C 102.9672 180.2061 135.0962 153.7571 145.1202 146.8251 L 145.1202 122.2521 L 157.9102 122.2521 L 157.9102 147.2461 C 168.5782 154.7961 199.4672 181.2701 199.4672 234.5601 C 199.4672 297.5791 156.2372 323.1111 154.3962 324.1741 " fill-rule="evenodd"/>
</clipPath>
<g clip-path="url(#cp5)">
<path transform="matrix(1,0,0,-1,0,331)" d="M 97.9672 330.9871 L 204.4672 330.9871 L 204.4672 117.2521 L 97.9672 117.2521 Z " fill="#0b0b09"/>
</g>
<clipPath id="cp6">
<path transform="matrix(1,0,0,-1,0,331)" d="M 20.2383 75.3125 L 17.1123 75.3125 L 21.8193 80.3725 L 25.9283 80.3725 L 20.2383 75.3125 Z M 19.3263 68.3555 L 15.6713 58.2745 L 22.9793 58.2745 L 19.3263 68.3555 Z M 25.7893 49.9125 L 24.3473 53.8805 L 14.3013 53.8805 L 12.8253 49.9125 L 7.1353 49.9125 L 16.1973 73.3435 L 22.4523 73.3435 L 31.4793 49.9125 L 25.7893 49.9125 Z " fill-rule="evenodd"/>
</clipPath>
<g clip-path="url(#cp6)">
<path transform="matrix(1,0,0,-1,0,331)" d="M 2.1353 85.3725 L 36.4793 85.3725 L 36.4793 44.9125 L 2.1353 44.9125 Z " fill="#0b0b09"/>
</g>
<clipPath id="cp7">
<path transform="matrix(1,0,0,-1,0,331)" d="M 68.4609 65.792 C 68.4609 67.759 66.9489 68.954 64.9489 68.954 L 59.7139 68.954 L 59.7139 62.63 L 64.9489 62.63 C 66.9489 62.63 68.4609 63.823 68.4609 65.792 Z M 67.9699 49.912 L 63.3659 58.238 L 59.7139 58.238 L 59.7139 49.912 L 54.7249 49.912 L 54.7249 73.344 L 65.6869 73.344 C 70.5699 73.344 73.5559 70.147 73.5559 65.792 C 73.5559 61.646 70.9559 59.434 68.4249 58.837 L 73.6939 49.912 L 67.9699 49.912 Z " fill-rule="evenodd"/>
</clipPath>
<g clip-path="url(#cp7)">
<path transform="matrix(1,0,0,-1,0,331)" d="M 49.7249 78.344 L 78.6939 78.344 L 78.6939 44.912 L 49.7249 44.912 Z " fill="#0b0b09"/>
</g>
<clipPath id="cp8">
<path transform="matrix(1,0,0,-1,0,331)" d="M 112.8213 56.9385 C 112.8213 58.4145 111.7673 59.6775 109.8003 59.6775 L 103.3713 59.6775 L 103.3713 54.2335 L 109.8003 54.2335 C 111.6963 54.2335 112.8213 55.2515 112.8213 56.9385 Z M 112.3643 66.4955 C 112.3643 67.9695 111.3083 69.0575 109.6223 69.0575 L 103.3713 69.0575 L 103.3713 63.9635 L 109.6223 63.9635 C 111.3083 63.9635 112.3643 65.0195 112.3643 66.4955 Z M 98.3813 49.9125 L 98.3813 73.3435 L 110.7123 73.3435 C 115.1753 73.3435 117.4573 70.4995 117.4573 67.3715 C 117.4573 64.4205 115.6323 62.4545 113.4193 61.9975 C 115.9123 61.6105 117.9163 59.1865 117.9163 56.2365 C 117.9163 52.7225 115.5623 49.9125 111.1003 49.9125 L 98.3813 49.9125 Z " fill-rule="evenodd"/>
</clipPath>
<g clip-path="url(#cp8)">
<path transform="matrix(1,0,0,-1,0,331)" d="M 93.3813 78.3435 L 122.9163 78.3435 L 122.9163 44.9125 L 93.3813 44.9125 Z " fill="#0b0b09"/>
</g>
<clipPath id="cp9">
<path transform="matrix(1,0,0,-1,0,331)" d="M 160.9736 61.6104 C 160.9736 66.0024 158.1636 69.3054 153.8406 69.3054 C 149.5226 69.3054 146.7456 66.0024 146.7456 61.6104 C 146.7456 57.2544 149.5226 53.9174 153.8406 53.9174 C 158.1636 53.9174 160.9736 57.2544 160.9736 61.6104 M 141.6186 61.6104 C 141.6186 68.6714 146.7826 73.7304 153.8406 73.7304 C 160.9396 73.7304 166.1036 68.6714 166.1036 61.6104 C 166.1036 54.5494 160.9396 49.4914 153.8406 49.4914 C 146.7826 49.4914 141.6186 54.5494 141.6186 61.6104 " fill-rule="evenodd"/>
</clipPath>
<g clip-path="url(#cp9)">
<path transform="matrix(1,0,0,-1,0,331)" d="M 136.6186 78.7304 L 171.1036 78.7304 L 171.1036 44.4914 L 136.6186 44.4914 Z " fill="#0b0b09"/>
</g>
<clipPath id="cp10">
<path transform="matrix(1,0,0,-1,0,331)" d="M 190.6836 49.9121 L 190.6836 73.3441 L 195.6716 73.3441 L 195.6716 54.3041 L 205.5796 54.3041 L 205.5796 49.9121 L 190.6836 49.9121 Z " fill-rule="evenodd"/>
</clipPath>
<g clip-path="url(#cp10)">
<path transform="matrix(1,0,0,-1,0,331)" d="M 185.6836 78.3441 L 210.5796 78.3441 L 210.5796 44.9121 L 185.6836 44.9121 Z " fill="#0b0b09"/>
</g>
<clipPath id="cp11">
<path transform="matrix(1,0,0,-1,0,331)" d="M 230.124 49.9121 L 230.124 73.3441 L 246.706 73.3441 L 246.706 68.9541 L 235.112 68.9541 L 235.112 63.9991 L 246.461 63.9991 L 246.461 59.6091 L 235.112 59.6091 L 235.112 54.3041 L 246.706 54.3041 L 246.706 49.9121 L 230.124 49.9121 Z " fill-rule="evenodd"/>
</clipPath>
<g clip-path="url(#cp11)">
<path transform="matrix(1,0,0,-1,0,331)" d="M 225.124 78.3441 L 251.706 78.3441 L 251.706 44.9121 L 225.124 44.9121 Z " fill="#0b0b09"/>
</g>
<clipPath id="cp12">
<path transform="matrix(1,0,0,-1,0,331)" d="M 270.0928 53.2158 L 272.7978 57.0088 C 274.4498 55.2878 277.0138 53.8468 280.2478 53.8468 C 282.9868 53.8468 284.3208 55.1118 284.3208 56.4468 C 284.3208 60.5918 270.8308 57.7468 270.8308 66.5648 C 270.8308 70.4648 274.2028 73.6948 279.7208 73.6948 C 283.4438 73.6948 286.5338 72.5708 288.8538 70.4298 L 286.0788 66.7748 C 284.1828 68.5308 281.6518 69.3398 279.2618 69.3398 C 277.1198 69.3398 275.9258 68.3918 275.9258 66.9858 C 275.9258 63.2608 289.3798 65.7578 289.3798 57.0088 C 289.3798 52.7228 286.3238 49.4908 279.9998 49.4908 C 275.5028 49.4908 272.2728 51.0018 270.0928 53.2158 " fill-rule="evenodd"/>
</clipPath>
<g clip-path="url(#cp12)">
<path transform="matrix(1,0,0,-1,0,331)" d="M 265.0928 78.6948 L 294.3798 78.6948 L 294.3798 44.4908 L 265.0928 44.4908 Z " fill="#0b0b09"/>
</g>
<clipPath id="cp13">
<path transform="matrix(1,0,0,-1,0,331)" d="M 28.4238 8.1865 L 28.4238 24.5925 L 21.8198 8.1865 L 19.6418 8.1865 L 13.0368 24.5925 L 13.0368 8.1865 L 8.0478 8.1865 L 8.0478 31.6185 L 15.0388 31.6185 L 20.7318 17.4585 L 26.4198 31.6185 L 33.4478 31.6185 L 33.4478 8.1865 L 28.4238 8.1865 Z " fill-rule="evenodd"/>
</clipPath>
<g clip-path="url(#cp13)">
<path transform="matrix(1,0,0,-1,0,331)" d="M 3.0478 36.6185 L 38.4478 36.6185 L 38.4478 3.1865 L 3.0478 3.1865 Z " fill="#0b0b09"/>
</g>
<clipPath id="cp14">
<path transform="matrix(1,0,0,-1,0,331)" d="M 69.7593 33.5859 L 66.6353 33.5859 L 71.3403 38.6449 L 75.4503 38.6449 L 69.7593 33.5859 Z M 68.8473 26.6289 L 65.1943 16.5459 L 72.5013 16.5459 L 68.8473 26.6289 Z M 75.3113 8.1869 L 73.8693 12.1559 L 63.8233 12.1559 L 62.3473 8.1869 L 56.6553 8.1869 L 65.7193 31.6179 L 71.9733 31.6179 L 81.0013 8.1869 L 75.3113 8.1869 Z " fill-rule="evenodd"/>
</clipPath>
<g clip-path="url(#cp14)">
<path transform="matrix(1,0,0,-1,0,331)" d="M 51.6553 43.6449 L 86.0013 43.6449 L 86.0013 3.1869 L 51.6553 3.1869 Z " fill="#0b0b09"/>
</g>
<clipPath id="cp15">
<path transform="matrix(1,0,0,-1,0,331)" d="M 101.9297 19.8838 C 101.9297 27.2978 107.5497 32.0048 114.4007 32.0048 C 119.2837 32.0048 122.3397 29.5458 124.0957 26.7708 L 119.9507 24.5218 C 118.8977 26.1738 116.8957 27.5768 114.4007 27.5768 C 110.1507 27.5768 107.0567 24.3118 107.0567 19.8838 C 107.0567 15.4578 110.1507 12.1908 114.4007 12.1908 C 116.4727 12.1908 118.4407 13.1048 119.3887 13.9818 L 119.3887 16.7918 L 113.2047 16.7918 L 113.2047 21.1498 L 124.3777 21.1498 L 124.3777 12.1558 C 121.9887 9.4858 118.6507 7.7288 114.4007 7.7288 C 107.5497 7.7288 101.9297 12.5078 101.9297 19.8838 " fill-rule="evenodd"/>
</clipPath>
<g clip-path="url(#cp15)">
<path transform="matrix(1,0,0,-1,0,331)" d="M 96.9297 37.0048 L 129.3777 37.0048 L 129.3777 2.7288 L 96.9297 2.7288 Z " fill="#0b0b09"/>
</g>
<clipPath id="cp16">
<path transform="matrix(1,0,0,-1,0,331)" d="M 0 0 L 297 0 L 297 331 L 0 331 Z "/>
</clipPath>
<g clip-path="url(#cp16)">
<g>
<clipPath id="cp17">
<path transform="matrix(1,0,0,-1,0,331)" d="M 149 7 L 291 7 L 291 33 L 149 33 Z "/>
</clipPath>
<g clip-path="url(#cp17)">
<clipPath id="cp18">
<path transform="matrix(1,0,0,-1,0,331)" d="M 149.415 8.186 L 154.403 8.186 L 154.403 31.618 L 149.415 31.618 Z "/>
</clipPath>
<g clip-path="url(#cp18)">
<path transform="matrix(1,0,0,-1,0,331)" d="M 144.415 36.618 L 159.403 36.618 L 159.403 3.186 L 144.415 3.186 Z " fill="#0b0b09"/>
</g>
<clipPath id="cp19">
<path transform="matrix(1,0,0,-1,0,331)" d="M 178.9854 19.8838 C 178.9854 27.0868 184.4314 32.0048 191.4564 32.0048 C 196.6224 32.0048 199.6084 29.1948 201.2594 26.2788 L 196.9734 24.1698 C 195.9904 26.0668 193.8804 27.5768 191.4564 27.5768 C 187.2084 27.5768 184.1144 24.3118 184.1144 19.8838 C 184.1144 15.4578 187.2084 12.1908 191.4564 12.1908 C 193.8804 12.1908 195.9904 13.6658 196.9734 15.5988 L 201.2594 13.5258 C 199.5734 10.6098 196.6224 7.7648 191.4564 7.7648 C 184.4314 7.7648 178.9854 12.6838 178.9854 19.8838 " fill-rule="evenodd"/>
</clipPath>
<g clip-path="url(#cp19)">
<clipPath id="cp20">
<path transform="matrix(1,0,0,-1,0,331)" d="M 0 0 L 297 0 L 297 331 L 0 331 Z "/>
</clipPath>
<g clip-path="url(#cp20)">
<path transform="matrix(1,0,0,-1,0,331)" d="M 173.9854 37.0048 L 206.2594 37.0048 L 206.2594 2.7648 L 173.9854 2.7648 Z " fill="#0b0b09"/>
</g>
</g>
<clipPath id="cp21">
<path transform="matrix(1,0,0,-1,0,331)" d="M 243.5439 19.8838 C 243.5439 24.2778 240.7329 27.5768 236.4119 27.5768 C 232.0919 27.5768 229.3169 24.2778 229.3169 19.8838 C 229.3169 15.5288 232.0919 12.1908 236.4119 12.1908 C 240.7329 12.1908 243.5439 15.5288 243.5439 19.8838 M 224.1879 19.8838 C 224.1879 26.9458 229.3519 32.0048 236.4119 32.0048 C 243.5089 32.0048 248.6749 26.9458 248.6749 19.8838 C 248.6749 12.8228 243.5089 7.7648 236.4119 7.7648 C 229.3519 7.7648 224.1879 12.8228 224.1879 19.8838 " fill-rule="evenodd"/>
</clipPath>
<g clip-path="url(#cp21)">
<clipPath id="cp22">
<path transform="matrix(1,0,0,-1,0,331)" d="M 0 0 L 297 0 L 297 331 L 0 331 Z "/>
</clipPath>
<g clip-path="url(#cp22)">
<path transform="matrix(1,0,0,-1,0,331)" d="M 219.1879 37.0048 L 253.6749 37.0048 L 253.6749 2.7648 L 219.1879 2.7648 Z " fill="#0b0b09"/>
</g>
</g>
<clipPath id="cp23">
<path transform="matrix(1,0,0,-1,0,331)" d="M 271.6738 11.4873 L 274.3788 15.2823 C 276.0308 13.5593 278.5928 12.1213 281.8268 12.1213 C 284.5678 12.1213 285.9018 13.3843 285.9018 14.7193 C 285.9018 18.8663 272.4098 16.0213 272.4098 24.8393 C 272.4098 28.7373 275.7818 31.9703 281.2998 31.9703 C 285.0248 31.9703 288.1138 30.8443 290.4348 28.7013 L 287.6588 25.0493 C 285.7618 26.8043 283.2328 27.6113 280.8408 27.6113 C 278.6998 27.6113 277.5068 26.6653 277.5068 25.2593 C 277.5068 21.5353 290.9608 24.0303 290.9608 15.2823 C 290.9608 10.9973 287.9048 7.7643 281.5808 7.7643 C 277.0838 7.7643 273.8518 9.2743 271.6738 11.4873 " fill-rule="evenodd"/>
</clipPath>
<g clip-path="url(#cp23)">
<clipPath id="cp24">
<path transform="matrix(1,0,0,-1,0,331)" d="M 0 0 L 297 0 L 297 331 L 0 331 Z "/>
</clipPath>
<g clip-path="url(#cp24)">
<path transform="matrix(1,0,0,-1,0,331)" d="M 266.6738 36.9703 L 295.9608 36.9703 L 295.9608 2.7643 L 266.6738 2.7643 Z " fill="#0b0b09"/>
</g>
</g>
</g>
</g>
</g>
</g>
</g>
</svg>
