<?xml version="1.0" standalone="no"?>
<!DOCTYPE svg PUBLIC "-//W3C//DTD SVG 20010904//EN"
 "http://www.w3.org/TR/2001/REC-SVG-20010904/DTD/svg10.dtd">
<svg version="1.0" xmlns="http://www.w3.org/2000/svg"
 width="512.000000pt" height="512.000000pt" viewBox="0 0 512.000000 512.000000"
 preserveAspectRatio="xMidYMid meet">

<g transform="translate(0.000000,512.000000) scale(0.100000,-0.100000)"
fill="#000000" stroke="none">
<path d="M1911 4854 c-84 -23 -167 -72 -224 -134 -43 -46 -72 -98 -166 -295
-63 -132 -123 -248 -134 -257 -18 -17 -53 -18 -431 -18 -323 0 -426 -4 -481
-15 -225 -47 -413 -235 -460 -460 -22 -105 -22 -2845 0 -2950 47 -225 235
-413 460 -460 105 -22 4065 -22 4170 0 225 47 413 235 460 460 22 105 22 2845
0 2950 -47 225 -235 413 -460 460 -55 11 -157 15 -472 15 l-402 0 -25 23 c-13
12 -70 119 -125 237 -56 118 -118 239 -139 269 -43 64 -129 130 -210 163 l-57
23 -625 2 c-523 2 -634 0 -679 -13z m1237 -401 c11 -10 70 -124 132 -254 143
-304 185 -354 353 -422 50 -21 72 -22 503 -27 l451 -5 39 -27 c21 -15 50 -44
64 -65 l25 -37 0 -1416 0 -1416 -25 -37 c-14 -21 -43 -50 -64 -65 l-39 -27
-2027 0 -2027 0 -39 27 c-21 15 -50 44 -64 65 l-25 37 0 1416 0 1417 27 39
c15 21 44 50 65 64 l36 25 456 6 c527 6 523 5 648 101 72 55 108 112 223 358
56 118 112 225 126 238 l25 22 558 0 c518 0 560 -1 579 -17z"/>
<path d="M2380 3535 c-668 -99 -1146 -723 -1060 -1382 45 -344 218 -645 487
-847 395 -296 900 -338 1335 -109 312 165 553 473 631 808 72 309 36 600 -110
877 -246 466 -764 730 -1283 653z m415 -420 c278 -81 496 -299 581 -580 24
-80 27 -106 27 -235 0 -129 -3 -155 -27 -235 -85 -281 -300 -496 -581 -581
-80 -24 -106 -27 -235 -27 -129 0 -155 3 -235 27 -347 105 -590 409 -612 766
-26 430 279 812 711 890 92 16 271 5 371 -25z"/>
<path d="M3920 3150 l0 -200 200 0 200 0 0 200 0 200 -200 0 -200 0 0 -200z"/>
</g>
</svg>
