<?xml version="1.0" standalone="no"?>
<!DOCTYPE svg PUBLIC "-//W3C//DTD SVG 20010904//EN"
 "http://www.w3.org/TR/2001/REC-SVG-20010904/DTD/svg10.dtd">
<svg version="1.0" xmlns="http://www.w3.org/2000/svg"
 width="512.000000pt" height="512.000000pt" viewBox="0 0 512.000000 512.000000"
 preserveAspectRatio="xMidYMid meet">

<g transform="translate(0.000000,512.000000) scale(0.100000,-0.100000)"
fill="#000000" stroke="none">
<path d="M2051 4284 c-141 -38 -240 -126 -322 -288 l-54 -106 -258 0 c-305 0
-366 -9 -507 -77 -82 -39 -107 -58 -185 -137 -72 -72 -99 -109 -133 -176 -81
-164 -77 -98 -77 -1145 0 -1047 -5 -976 78 -1145 33 -69 58 -102 132 -175 99
-100 175 -146 305 -187 l75 -23 1455 0 1455 0 75 23 c130 41 206 87 305 187
74 73 99 106 132 175 83 169 78 98 78 1145 0 1047 5 976 -78 1145 -33 69 -58
102 -132 176 -77 78 -104 98 -185 137 -141 68 -201 77 -507 77 l-258 0 -54
106 c-83 164 -181 251 -326 289 -84 22 -932 21 -1014 -1z m1015 -216 c69 -36
94 -69 169 -219 36 -70 74 -135 87 -143 19 -14 63 -16 298 -16 151 0 307 -5
345 -10 196 -28 370 -184 420 -375 23 -89 23 -1811 0 -1900 -51 -193 -228
-350 -425 -375 -101 -13 -2701 -13 -2800 0 -198 26 -374 182 -425 377 -23 87
-22 1811 0 1898 50 191 224 347 420 375 39 5 194 10 345 10 235 0 279 2 298
16 12 8 50 70 83 137 34 67 72 137 85 154 28 36 99 82 147 94 18 4 228 7 467
6 l435 -2 51 -27z"/>
<path d="M2380 3465 c-413 -75 -737 -392 -822 -805 -29 -138 -21 -348 16 -475
67 -226 197 -414 386 -556 71 -54 235 -132 330 -158 235 -64 490 -41 708 64
117 56 167 90 260 179 174 165 275 356 312 588 17 106 8 311 -18 410 -102 381
-406 669 -789 747 -117 24 -268 26 -383 6z m370 -212 c269 -65 492 -267 581
-526 53 -155 61 -281 29 -437 -55 -268 -253 -500 -506 -596 -462 -174 -966 90
-1090 571 -27 106 -25 295 4 400 92 325 357 559 684 605 80 11 214 4 298 -17z"/>
</g>
</svg>
