<?xml version="1.0" standalone="no"?>
<!DOCTYPE svg PUBLIC "-//W3C//DTD SVG 20010904//EN"
 "http://www.w3.org/TR/2001/REC-SVG-20010904/DTD/svg10.dtd">
<svg version="1.0" xmlns="http://www.w3.org/2000/svg"
 width="512.000000pt" height="512.000000pt" viewBox="0 0 512.000000 512.000000"
 preserveAspectRatio="xMidYMid meet">

<g transform="translate(0.000000,512.000000) scale(0.100000,-0.100000)"
fill="#000000" stroke="none">
<path d="M392 4610 c-45 -28 -76 -98 -67 -151 9 -53 58 -104 114 -119 29 -7
106 -10 220 -8 162 3 179 5 212 26 86 53 92 169 14 242 -26 25 -28 25 -243 28
-204 2 -219 1 -250 -18z"/>
<path d="M1729 4606 c-36 -13 -86 -37 -110 -54 -24 -17 -152 -139 -284 -272
-132 -133 -253 -249 -270 -258 -26 -15 -76 -18 -360 -22 -317 -6 -332 -7 -390
-29 -81 -32 -123 -60 -182 -120 -56 -57 -105 -150 -122 -229 -8 -37 -11 -454
-11 -1385 0 -1149 2 -1341 15 -1390 42 -163 161 -290 316 -338 59 -18 129 -19
2229 -19 2100 0 2170 1 2229 19 155 48 274 175 316 338 23 87 22 2696 0 2792
-42 177 -190 317 -369 350 -34 6 -184 11 -348 11 -245 0 -294 2 -321 16 -18 9
-149 132 -292 274 -143 141 -280 269 -305 283 -103 58 -86 57 -914 57 l-761 0
-66 -24z m1578 -287 c15 -6 147 -129 293 -274 361 -358 332 -345 769 -345 164
0 312 -5 331 -10 41 -11 94 -61 109 -103 8 -19 11 -440 11 -1345 0 -1263 -1
-1319 -19 -1358 -10 -23 -34 -52 -52 -65 l-34 -24 -2156 0 -2156 0 -35 27
c-73 56 -69 -39 -66 1439 l3 1326 29 37 c55 72 72 76 411 76 318 0 355 4 452
51 35 16 121 95 313 285 146 145 279 270 295 278 26 14 119 16 752 16 487 0
731 -3 750 -11z"/>
<path d="M2432 3509 c-450 -52 -829 -382 -949 -824 -25 -92 -27 -115 -27 -285
1 -203 10 -257 74 -417 128 -318 415 -569 757 -660 86 -23 118 -26 268 -27
145 -1 183 3 258 22 511 129 856 564 857 1078 0 203 -35 347 -126 524 -140
271 -407 484 -702 560 -143 36 -271 45 -410 29z m334 -319 c220 -57 418 -218
520 -425 61 -125 84 -222 84 -359 0 -221 -72 -405 -219 -559 -148 -157 -335
-243 -551 -254 -363 -19 -690 205 -812 557 -31 91 -32 102 -33 245 0 169 11
224 70 353 94 202 274 359 497 431 133 44 299 48 444 11z"/>
</g>
</svg>
