<?xml version="1.0" encoding="UTF-8" standalone="no"?>
<!DOCTYPE svg PUBLIC "-//W3C//DTD SVG 1.1//EN" "http://www.w3.org/Graphics/SVG/1.1/DTD/svg11.dtd">
<svg xmlns="http://www.w3.org/2000/svg" xmlns:xlink="http://www.w3.org/1999/xlink" version="1.1" width="28pt" height="37pt" viewBox="0 0 28 37">
<g enable-background="new">
<g>
<clipPath id="cp0">
<path transform="matrix(1,0,0,-1,0,37)" d="M 3.0527 23.436 C 3.0527 29.607 8.0437 34.599 14.2147 34.599 C 20.3867 34.599 25.3777 29.607 25.3777 23.436 C 25.3777 15.064 14.2147 2.705 14.2147 2.705 C 14.2147 2.705 3.0527 15.064 3.0527 23.436 Z " fill-rule="evenodd"/>
</clipPath>
<g clip-path="url(#cp0)">
<clipPath id="cp1">
<path transform="matrix(1,0,0,-1,0,37)" d="M 0 0 L 28 0 L 28 37 L 0 37 Z "/>
</clipPath>
<g clip-path="url(#cp1)">
<g>
<clipPath id="cp2">
<path transform="matrix(1,0,0,-1,0,37)" d="M -2 -3 L 31 -3 L 31 40 L -2 40 Z "/>
</clipPath>
<g clip-path="url(#cp2)">
<clipPath id="cp3">
<path transform="matrix(1,0,0,-1,0,37)" d="M -1.9473 39.599 L 30.3777 39.599 L 30.3777 -2.295 L -1.9473 -2.295 L -1.9473 39.599 Z " fill-rule="evenodd"/>
</clipPath>
<g clip-path="url(#cp3)">
<clipPath id="cp4">
<path transform="matrix(1,0,0,-1,0,37)" d="M 3 2 L 26 2 L 26 35 L 3 35 Z "/>
</clipPath>
<g clip-path="url(#cp4)">
<path transform="matrix(1,0,0,-1,0,37)" d="M -6.9473 44.599 L 35.3777 44.599 L 35.3777 -7.295 L -6.9473 -7.295 Z " fill="#c62128"/>
</g>
</g>
</g>
</g>
</g>
</g>
<clipPath id="cp5">
<path transform="matrix(1,0,0,-1,0,37)" d="M 25.3779 23.436 C 25.3779 29.607 20.3869 34.599 14.2149 34.599 C 8.0439 34.599 3.0529 29.607 3.0529 23.436 C 3.0529 15.064 14.2149 2.705 14.2149 2.705 C 14.2149 2.705 25.3779 15.064 25.3779 23.436 Z M 14.2149 35.686 C 20.9699 35.686 26.4649 30.19 26.4649 23.436 C 26.4649 14.746 15.4889 2.494 15.0219 1.976 L 14.2149 1.083 L 13.4079 1.976 C 12.9409 2.494 1.9649 14.746 1.9649 23.436 C 1.9649 30.19 7.4599 35.686 14.2149 35.686 Z " fill-rule="evenodd"/>
</clipPath>
<g clip-path="url(#cp5)">
<clipPath id="cp6">
<path transform="matrix(1,0,0,-1,0,37)" d="M 0 0 L 28 0 L 28 37 L 0 37 Z "/>
</clipPath>
<g clip-path="url(#cp6)">
<g>
<clipPath id="cp7">
<path transform="matrix(1,0,0,-1,0,37)" d="M -4 -4 L 32 -4 L 32 41 L -4 41 Z "/>
</clipPath>
<g clip-path="url(#cp7)">
<clipPath id="cp8">
<path transform="matrix(1,0,0,-1,0,37)" d="M 1 1 L 27 1 L 27 36 L 1 36 Z "/>
</clipPath>
<g clip-path="url(#cp8)">
<path transform="matrix(1,0,0,-1,0,37)" d="M -3.0351 40.686 L 31.4649 40.686 L 31.4649 -3.917 L -3.0351 -3.917 Z " fill="#d8d8d8"/>
</g>
<clipPath id="cp9">
<path transform="matrix(1,0,0,-1,0,37)" d="M -3.0351 40.686 L 31.4649 40.686 L 31.4649 -3.917 L -3.0351 -3.917 L -3.0351 40.686 Z " fill-rule="evenodd"/>
</clipPath>
<g clip-path="url(#cp9)">
<clipPath id="cp10">
<path transform="matrix(1,0,0,-1,0,37)" d="M 1 1 L 27 1 L 27 36 L 1 36 Z "/>
</clipPath>
<g clip-path="url(#cp10)">
<path transform="matrix(1,0,0,-1,0,37)" d="M -8.0351 45.686 L 36.4649 45.686 L 36.4649 -8.917 L -8.0351 -8.917 Z " fill="#ffffff"/>
</g>
</g>
</g>
</g>
</g>
</g>
<clipPath id="cp11">
<path transform="matrix(1,0,0,-1,0,37)" d="M 14.2148 14.0981 C 9.0558 14.0981 4.8758 18.2771 4.8758 23.4371 C 4.8758 28.5971 9.0558 32.7761 14.2148 32.7761 C 19.3748 32.7761 23.5538 28.5971 23.5538 23.4371 C 23.5538 18.2771 19.3748 14.0981 14.2148 14.0981 Z " fill-rule="evenodd"/>
</clipPath>
<g clip-path="url(#cp11)">
<clipPath id="cp12">
<path transform="matrix(1,0,0,-1,0,37)" d="M 0 0 L 28 0 L 28 37 L 0 37 Z "/>
</clipPath>
<g clip-path="url(#cp12)">
<g>
<clipPath id="cp13">
<path transform="matrix(1,0,0,-1,0,37)" d="M -1 9 L 29 9 L 29 38 L -1 38 Z "/>
</clipPath>
<g clip-path="url(#cp13)">
<clipPath id="cp14">
<path transform="matrix(1,0,0,-1,0,37)" d="M -.1242 37.7761 L 28.5538 37.7761 L 28.5538 9.0981 L -.1242 9.0981 L -.1242 37.7761 Z " fill-rule="evenodd"/>
</clipPath>
<g clip-path="url(#cp14)">
<clipPath id="cp15">
<path transform="matrix(1,0,0,-1,0,37)" d="M 4 14 L 24 14 L 24 33 L 4 33 Z "/>
</clipPath>
<g clip-path="url(#cp15)">
<path transform="matrix(1,0,0,-1,0,37)" d="M -5.1242 42.7761 L 33.5538 42.7761 L 33.5538 4.0981 L -5.1242 4.0981 Z " fill="#ffffff"/>
</g>
</g>
</g>
</g>
</g>
</g>
<clipPath id="cp16">
<path transform="matrix(1,0,0,-1,0,37)" d="M 20.73126 26.56799 C 20.73126 27.7039 19.86926 28.63819 18.76369 28.75294 C 18.45341 29.5897 17.65036 30.18727 16.70539 30.18727 C 16.29175 30.18727 15.90623 30.07081 15.57603 29.87211 C 15.20049 30.54462 14.48262 31 13.6575 31 C 12.56358 31 11.65888 30.19939 11.491 29.15276 C 11.40172 29.16367 11.31147 29.17121 11.21927 29.17121 C 10.00598 29.17121 9.022197 28.18765 9.022197 26.97413 C 9.022197 26.91469 9.026561 26.85646 9.031178 26.79823 C 8.415932 26.40884 8.006393 25.7242 8.006393 24.94227 C 8.006393 24.25106 8.326169 23.63534 8.825191 23.2326 C 8.823009 23.19304 8.819128 23.15377 8.819128 23.11371 C 8.819128 21.90042 9.802685 20.91663 11.0162 20.91663 C 11.37987 20.91663 11.72195 21.00639 12.02402 21.16263 C 12.44251 20.86203 13.04177 20.48598 13.33192 20.56095 C 13.33192 20.56095 13.43987 18.88888 13.41658 18.4643 C 13.37218 17.65641 13.12981 16.75706 12.95927 16.02921 L 15.60082 16.02921 C 15.60082 16.02921 15.21142 17.65179 15.19443 18.19354 C 15.17745 18.73531 15.36378 19.73292 15.36378 19.73292 L 16.28013 20.68078 C 16.63286 20.43963 17.05889 20.30255 17.51841 20.30255 C 18.65429 20.30255 19.5886 21.16674 19.70336 22.27233 C 20.54009 22.58262 21.13766 23.38784 21.13766 24.33281 C 21.13766 24.89082 20.92804 25.39836 20.58546 25.78603 C 20.67814 26.02916 20.73126 26.29213 20.73126 26.56799 Z M 12.53154 21.52536 C 12.70766 21.69349 12.85542 21.88999 12.96822 22.1081 L 13.39958 21.20439 C 13.39935 21.20436 13.16475 21.10077 12.53154 21.52536 Z M 14.14442 20.96735 C 13.92121 20.92683 13.54105 21.61416 13.27125 22.1729 C 13.5704 22.02029 13.90812 21.93246 14.26717 21.93246 C 14.35936 21.93246 14.44986 21.93997 14.53914 21.95113 C 14.46975 21.50399 14.34749 21.00447 14.14442 20.96735 Z M 15.09279 20.52749 C 14.57649 20.38412 14.88558 21.45356 15.03357 22.07269 C 15.14059 22.11247 15.24418 22.15928 15.34267 22.21486 C 15.40211 21.76362 15.59813 21.35651 15.88855 21.03458 C 15.63695 20.81109 15.34726 20.5981 15.09279 20.52749 Z "/>
</clipPath>
<g clip-path="url(#cp16)">
<clipPath id="cp17">
<path transform="matrix(1,0,0,-1,0,37)" d="M 0 0 L 28 0 L 28 37 L 0 37 Z "/>
</clipPath>
<g clip-path="url(#cp17)">
<path transform="matrix(1,0,0,-1,0,37)" d="M 3.006393 36 L 26.13766 36 L 26.13766 11.02921 L 3.006393 11.02921 Z " fill="#c62128"/>
</g>
</g>
</g>
</g>
</svg>
