<?xml version="1.0" encoding="UTF-8" standalone="no"?>
<!DOCTYPE svg PUBLIC "-//W3C//DTD SVG 1.1//EN" "http://www.w3.org/Graphics/SVG/1.1/DTD/svg11.dtd">
<svg xmlns="http://www.w3.org/2000/svg" xmlns:xlink="http://www.w3.org/1999/xlink" version="1.1" width="26pt" height="35pt" viewBox="0 0 26 35">
<g enable-background="new">
<g>
<clipPath id="cp0">
<path transform="matrix(1,0,0,-1,0,35)" d="M 13.2147 33.599 C 19.3867 33.599 24.3777 28.607 24.3777 22.436 C 24.3777 14.064 13.2147 1.705 13.2147 1.705 C 13.2147 1.705 2.0527 14.064 2.0527 22.436 C 2.0527 28.607 7.0437 33.599 13.2147 33.599 Z " fill-rule="evenodd"/>
</clipPath>
<g clip-path="url(#cp0)">
<g>
<clipPath id="cp1">
<path transform="matrix(1,0,0,-1,0,35)" d="M -8 -9 L 35 -9 L 35 44 L -8 44 Z " fill-rule="evenodd"/>
</clipPath>
<g clip-path="url(#cp1)">
<clipPath id="cp2">
<path transform="matrix(1,0,0,-1,0,35)" d="M 2 1 L 25 1 L 25 34 L 2 34 Z "/>
</clipPath>
<g clip-path="url(#cp2)">
<path transform="matrix(1,0,0,-1,0,35)" d="M -12.9473 48.599 L 39.3777 48.599 L 39.3777 -13.295 L -12.9473 -13.295 Z " fill="#f5e94c"/>
</g>
</g>
</g>
</g>
<clipPath id="cp3">
<path transform="matrix(1,0,0,-1,0,35)" d="M 13.2149 34.686 C 19.9699 34.686 25.4649 29.19 25.4649 22.436 C 25.4649 13.746 14.4889 1.494 14.0219 .976 L 13.2149 .083 L 12.4079 .976 C 11.9409 1.494 .9649 13.746 .9649 22.436 C .9649 29.19 6.4599 34.686 13.2149 34.686 Z M 13.2149 33.599 C 7.0439 33.599 2.0529 28.607 2.0529 22.436 C 2.0529 14.064 13.2149 1.705 13.2149 1.705 C 13.2149 1.705 24.3779 14.064 24.3779 22.436 C 24.3779 28.607 19.3869 33.599 13.2149 33.599 Z " fill-rule="evenodd"/>
</clipPath>
<g clip-path="url(#cp3)">
<g>
<clipPath id="cp4">
<path transform="matrix(1,0,0,-1,0,35)" d="M -5 -5 L 31 -5 L 31 40 L -5 40 Z " fill-rule="evenodd"/>
</clipPath>
<g clip-path="url(#cp4)">
<clipPath id="cp5">
<path transform="matrix(1,0,0,-1,0,35)" d="M 0 0 L 26 0 L 26 35 L 0 35 Z "/>
</clipPath>
<g clip-path="url(#cp5)">
<path transform="matrix(1,0,0,-1,0,35)" d="M -9.0351 44.686 L 35.4649 44.686 L 35.4649 -9.917 L -9.0351 -9.917 Z " fill="#d8d8d8"/>
</g>
</g>
</g>
</g>
<clipPath id="cp6">
<path transform="matrix(1,0,0,-1,0,35)" d="M 13.2149 34.686 C 19.9699 34.686 25.4649 29.19 25.4649 22.436 C 25.4649 13.746 14.4889 1.494 14.0219 .976 L 13.2149 .083 L 12.4079 .976 C 11.9409 1.494 .9649 13.746 .9649 22.436 C .9649 29.19 6.4599 34.686 13.2149 34.686 Z M 13.2149 33.599 C 7.0439 33.599 2.0529 28.607 2.0529 22.436 C 2.0529 14.064 13.2149 1.705 13.2149 1.705 C 13.2149 1.705 24.3779 14.064 24.3779 22.436 C 24.3779 28.607 19.3869 33.599 13.2149 33.599 Z " fill-rule="evenodd"/>
</clipPath>
<g clip-path="url(#cp6)">
<g>
<clipPath id="cp7">
<path transform="matrix(1,0,0,-1,0,35)" d="M -10 -10 L 36 -10 L 36 45 L -10 45 Z " fill-rule="evenodd"/>
</clipPath>
<g clip-path="url(#cp7)">
<clipPath id="cp8">
<path transform="matrix(1,0,0,-1,0,35)" d="M 0 0 L 26 0 L 26 35 L 0 35 Z "/>
</clipPath>
<g clip-path="url(#cp8)">
<path transform="matrix(1,0,0,-1,0,35)" d="M -14.0351 49.686 L 40.4649 49.686 L 40.4649 -14.917 L -14.0351 -14.917 Z " fill="#ffffff"/>
</g>
</g>
</g>
</g>
<clipPath id="cp9">
<path transform="matrix(1,0,0,-1,0,35)" d="M 13.2148 31.7761 C 18.3748 31.7761 22.5538 27.5971 22.5538 22.4371 C 22.5538 17.2771 18.3748 13.0981 13.2148 13.0981 C 8.0558 13.0981 3.8758 17.2771 3.8758 22.4371 C 3.8758 27.5971 8.0558 31.7761 13.2148 31.7761 Z " fill-rule="evenodd"/>
</clipPath>
<g clip-path="url(#cp9)">
<g>
<clipPath id="cp10">
<path transform="matrix(1,0,0,-1,0,35)" d="M -7 3 L 33 3 L 33 42 L -7 42 Z " fill-rule="evenodd"/>
</clipPath>
<g clip-path="url(#cp10)">
<clipPath id="cp11">
<path transform="matrix(1,0,0,-1,0,35)" d="M 3 13 L 23 13 L 23 32 L 3 32 Z "/>
</clipPath>
<g clip-path="url(#cp11)">
<path transform="matrix(1,0,0,-1,0,35)" d="M -11.1242 46.7761 L 37.5538 46.7761 L 37.5538 -1.9019 L -11.1242 -1.9019 Z " fill="#ffffff"/>
</g>
</g>
</g>
</g>
<clipPath id="cp12">
<path transform="matrix(1,0,0,-1,0,35)" d="M 12.6575 30 C 13.48262 30 14.20049 29.54462 14.57603 28.87211 C 14.90623 29.07081 15.29175 29.18727 15.70539 29.18727 C 16.65036 29.18727 17.45341 28.5897 17.76369 27.75294 C 18.86926 27.63819 19.73126 26.7039 19.73126 25.56799 C 19.73126 25.29213 19.67814 25.02916 19.58546 24.78603 C 19.92804 24.39836 20.13766 23.89082 20.13766 23.33281 C 20.13766 22.38784 19.54009 21.58262 18.70336 21.27233 C 18.5886 20.16674 17.65429 19.30255 16.51841 19.30255 C 16.05889 19.30255 15.63286 19.43963 15.28013 19.68078 L 14.36378 18.73292 C 14.36378 18.73292 14.17745 17.73531 14.19443 17.19354 C 14.21142 16.65179 14.60082 15.02921 14.60082 15.02921 L 11.95927 15.02921 C 12.12981 15.75706 12.37218 16.65641 12.41658 17.4643 C 12.43987 17.88888 12.33192 19.56095 12.33192 19.56095 C 12.04177 19.48598 11.44251 19.86203 11.02402 20.16263 C 10.72195 20.00639 10.37987 19.91663 10.0162 19.91663 C 8.802685 19.91663 7.819128 20.90042 7.819128 22.11371 C 7.819128 22.15377 7.823009 22.19304 7.825191 22.2326 C 7.326169 22.63534 7.006393 23.25106 7.006393 23.94227 C 7.006393 24.7242 7.415932 25.40884 8.031178 25.79823 C 8.026561 25.85646 8.022197 25.91469 8.022197 25.97413 C 8.022197 27.18765 9.00598 28.17121 10.21927 28.17121 C 10.31147 28.17121 10.40172 28.16367 10.491 28.15276 C 10.65888 29.19939 11.56358 30 12.6575 30 Z M 14.34267 21.21486 C 14.24418 21.15928 14.14059 21.11247 14.03357 21.07269 C 13.88558 20.45356 13.57649 19.38412 14.09279 19.52749 C 14.34726 19.5981 14.63695 19.81109 14.88855 20.03458 C 14.59813 20.35651 14.40211 20.76362 14.34267 21.21486 Z M 12.27125 21.1729 C 12.54105 20.61416 12.92121 19.92683 13.14442 19.96735 C 13.34749 20.00447 13.46975 20.50399 13.53914 20.95113 C 13.44986 20.93997 13.35936 20.93246 13.26717 20.93246 C 12.90812 20.93246 12.5704 21.02029 12.27125 21.1729 Z M 11.96822 21.1081 C 11.85542 20.88999 11.70766 20.69349 11.53154 20.52536 C 12.16475 20.10077 12.39935 20.20436 12.39958 20.20439 L 11.96822 21.1081 Z " fill-rule="evenodd"/>
</clipPath>
<g clip-path="url(#cp12)">
<g>
<clipPath id="cp13">
<path transform="matrix(1,0,0,-1,0,35)" d="M 2 10 L 26 10 L 26 35 L 2 35 Z " fill-rule="evenodd"/>
</clipPath>
<g clip-path="url(#cp13)">
<clipPath id="cp14">
<path transform="matrix(1,0,0,-1,0,35)" d="M 7 15 L 21 15 L 21 30 L 7 30 Z "/>
</clipPath>
<g clip-path="url(#cp14)">
<path transform="matrix(1,0,0,-1,0,35)" d="M -2.993607 40 L 30.13766 40 L 30.13766 5.02921 L -2.993607 5.02921 Z " fill="#f5e94c"/>
</g>
</g>
</g>
</g>
</g>
</g>
</svg>
