<?xml version="1.0" standalone="no"?>
<!DOCTYPE svg PUBLIC "-//W3C//DTD SVG 20010904//EN"
 "http://www.w3.org/TR/2001/REC-SVG-20010904/DTD/svg10.dtd">
<svg version="1.0" xmlns="http://www.w3.org/2000/svg"
 width="512.000000pt" height="512.000000pt" viewBox="0 0 512.000000 512.000000"
 preserveAspectRatio="xMidYMid meet">

<g transform="translate(0.000000,512.000000) scale(0.100000,-0.100000)"
fill="#000000" stroke="none">
<path d="M4950 5036 c-47 -20 -4735 -2171 -4873 -2236 -78 -37 -99 -105 -49
-161 l28 -31 1109 -185 c611 -102 1114 -189 1118 -193 5 -4 64 -468 132 -1031
68 -563 127 -1038 130 -1055 7 -38 41 -72 82 -80 75 -15 -8 -172 1292 2451
719 1450 1201 2433 1201 2449 0 36 -58 96 -91 96 -13 -1 -49 -11 -79 -24z
m-1197 -2410 c-899 -1816 -1049 -2112 -1055 -2088 -4 15 -55 423 -113 907 -58
484 -108 890 -111 902 -3 11 -16 31 -29 43 -21 20 -132 41 -997 186 -535 90
-982 164 -993 165 -17 0 -18 2 -5 10 24 16 4345 1997 4348 1994 2 -2 -468
-955 -1045 -2119z"/>
</g>
</svg>
