<?xml version="1.0" encoding="UTF-8" standalone="no"?>
<svg
   xmlns:dc="http://purl.org/dc/elements/1.1/"
   xmlns:cc="http://creativecommons.org/ns#"
   xmlns:rdf="http://www.w3.org/1999/02/22-rdf-syntax-ns#"
   xmlns:svg="http://www.w3.org/2000/svg"
   xmlns="http://www.w3.org/2000/svg"
   viewBox="0 0 400 400"
   height="400"
   width="400"
   xml:space="preserve"
   id="svg2"
   version="1.1"><metadata
     id="metadata8"><rdf:RDF><cc:Work
         rdf:about=""><dc:format>image/svg+xml</dc:format><dc:type
           rdf:resource="http://purl.org/dc/dcmitype/StillImage" /></cc:Work></rdf:RDF></metadata><defs
     id="defs6"><clipPath
       id="clipPath20"
       clipPathUnits="userSpaceOnUse"><path
         id="path18"
         d="M 149.996,300 C 67.157,300 0.001,232.842 0.001,150.003 c 0,-82.837 67.156,-150 149.995,-150 82.839,0 150,67.163 150,150 0,82.839 -67.161,149.997 -150,149.997 z m 0.003,-52.686 88.763,-55.35 H 61.236 Z m 89.869,-143.737 h -0.009 c 0,-8.878 -7.195,-16.072 -16.072,-16.072 H 76.211 c -8.878,0 -16.072,7.195 -16.072,16.072 v 84.865 c 0,0.939 0.096,1.852 0.252,2.749 l 84.808,-52.883 c 0.104,-0.065 0.215,-0.109 0.322,-0.169 0.112,-0.062 0.226,-0.122 0.34,-0.179 0.599,-0.309 1.216,-0.558 1.847,-0.721 0.065,-0.018 0.13,-0.026 0.195,-0.041 0.692,-0.163 1.393,-0.265 2.093,-0.265 h 0.005 c 0.005,0 0.01,0 0.01,0 0.7,0 1.401,0.099 2.093,0.265 0.065,0.016 0.13,0.023 0.195,0.041 0.63,0.163 1.245,0.412 1.847,0.721 0.114,0.057 0.228,0.117 0.34,0.179 0.106,0.06 0.218,0.104 0.322,0.169 l 84.808,52.883 c 0.156,-0.897 0.252,-1.808 0.252,-2.749 z" /></clipPath></defs><g
     transform="matrix(1.3333333,0,0,-1.3333333,0,400)"
     id="g10"><g
       id="g12" /><g
       id="g14"><g
         clip-path="url(#clipPath20)"
         id="g16"><path
           id="path22"
           style="fill:#000000;fill-opacity:1;fill-rule:nonzero;stroke:none"
           d="M -4.999,-4.997 H 304.996 V 305 H -4.999 Z" /></g></g></g></svg>