<?xml version="1.0" encoding="UTF-8" standalone="no"?>
<svg
   xmlns:dc="http://purl.org/dc/elements/1.1/"
   xmlns:cc="http://creativecommons.org/ns#"
   xmlns:rdf="http://www.w3.org/1999/02/22-rdf-syntax-ns#"
   xmlns:svg="http://www.w3.org/2000/svg"
   xmlns="http://www.w3.org/2000/svg"
   viewBox="0 0 66.666664 66.666664"
   height="66.666664"
   width="66.666664"
   xml:space="preserve"
   id="svg2"
   version="1.1"><metadata
     id="metadata8"><rdf:RDF><cc:Work
         rdf:about=""><dc:format>image/svg+xml</dc:format><dc:type
           rdf:resource="http://purl.org/dc/dcmitype/StillImage" /></cc:Work></rdf:RDF></metadata><defs
     id="defs6"><clipPath
       id="clipPath20"
       clipPathUnits="userSpaceOnUse"><path
         id="path18"
         d="m 24.825,20.204 c 2.739,0 4.972,2.229 4.972,4.97 0,1.082 -0.354,2.081 -0.94,2.897 -0.903,1.252 -2.371,2.073 -4.029,2.073 -1.659,0 -3.126,-0.82 -4.031,-2.072 -0.588,-0.816 -0.939,-1.815 -0.94,-2.897 -0.003,-2.741 2.228,-4.971 4.968,-4.971 z" /></clipPath><clipPath
       id="clipPath30"
       clipPathUnits="userSpaceOnUse"><path
         id="path28"
         d="m 35.678,31.254 v 4.166 0.62 l -0.623,-0.002 -4.164,-0.013 0.016,-4.787 z" /></clipPath><clipPath
       id="clipPath40"
       clipPathUnits="userSpaceOnUse"><path
         id="path38"
         d="M 24.826,50 C 11.137,50 0,38.863 0,25.174 0,11.486 11.137,0.348 24.826,0.348 38.514,0.348 49.652,11.486 49.652,25.174 49.652,38.863 38.516,50 24.826,50 Z M 38.945,28.071 v -11.56 c 0,-3.011 -2.448,-5.458 -5.457,-5.458 H 16.164 c -3.01,0 -5.457,2.447 -5.457,5.458 v 11.56 5.764 c 0,3.01 2.447,5.457 5.457,5.457 h 17.323 c 3.01,0 5.458,-2.447 5.458,-5.457 z" /></clipPath><clipPath
       id="clipPath50"
       clipPathUnits="userSpaceOnUse"><path
         id="path48"
         d="m 32.549,25.174 c 0,-4.257 -3.464,-7.723 -7.723,-7.723 -4.259,0 -7.722,3.466 -7.722,7.723 0,1.024 0.204,2.003 0.568,2.897 h -4.215 v -11.56 c 0,-1.494 1.213,-2.704 2.706,-2.704 h 17.323 c 1.491,0 2.706,1.21 2.706,2.704 v 11.56 h -4.217 c 0.367,-0.894 0.574,-1.873 0.574,-2.897 z" /></clipPath></defs><g
     transform="matrix(1.3333333,0,0,-1.3333333,0,66.666667)"
     id="g10"><g
       id="g12" /><g
       id="g14"><g
         clip-path="url(#clipPath20)"
         id="g16"><path
           id="path22"
           style="fill:#000000;fill-opacity:1;fill-rule:nonzero;stroke:none"
           d="m 14.857,15.204 h 19.94 v 19.94 h -19.94 z" /></g></g><g
       id="g24"><g
         clip-path="url(#clipPath30)"
         id="g26"><path
           id="path32"
           style="fill:#000000;fill-opacity:1;fill-rule:nonzero;stroke:none"
           d="M 25.891,26.238 H 40.678 V 41.04 H 25.891 Z" /></g></g><g
       id="g34"><g
         clip-path="url(#clipPath40)"
         id="g36"><path
           id="path42"
           style="fill:#000000;fill-opacity:1;fill-rule:nonzero;stroke:none"
           d="M -5,-4.652 H 54.652 V 55 H -5 Z" /></g></g><g
       id="g44"><g
         clip-path="url(#clipPath50)"
         id="g46"><path
           id="path52"
           style="fill:#000000;fill-opacity:1;fill-rule:nonzero;stroke:none"
           d="M 8.457,8.807 H 41.192 V 33.071 H 8.457 Z" /></g></g></g></svg>