<?xml version="1.0" encoding="UTF-8" standalone="no"?>
<svg
   xmlns:dc="http://purl.org/dc/elements/1.1/"
   xmlns:cc="http://creativecommons.org/ns#"
   xmlns:rdf="http://www.w3.org/1999/02/22-rdf-syntax-ns#"
   xmlns:svg="http://www.w3.org/2000/svg"
   xmlns="http://www.w3.org/2000/svg"
   viewBox="0 0 66.666664 66.666664"
   height="66.666664"
   width="66.666664"
   xml:space="preserve"
   id="svg2"
   version="1.1"><metadata
     id="metadata8"><rdf:RDF><cc:Work
         rdf:about=""><dc:format>image/svg+xml</dc:format><dc:type
           rdf:resource="http://purl.org/dc/dcmitype/StillImage" /></cc:Work></rdf:RDF></metadata><defs
     id="defs6"><clipPath
       id="clipPath20"
       clipPathUnits="userSpaceOnUse"><path
         id="path18"
         d="M 24.826,50 C 11.137,50 0,38.863 0,25.174 0,11.486 11.137,0.348 24.826,0.348 38.514,0.348 49.652,11.486 49.652,25.174 49.652,38.863 38.516,50 24.826,50 Z M 31,24.3 h -4.039 c 0,-6.453 0,-14.396 0,-14.396 h -5.985 c 0,0 0,7.866 0,14.396 h -2.845 v 5.088 h 2.845 v 3.291 c 0,2.357 1.12,6.04 6.04,6.04 l 4.435,-0.017 v -4.939 c 0,0 -2.695,0 -3.219,0 -0.524,0 -1.269,-0.262 -1.269,-1.386 v -2.99 h 4.56 z" /></clipPath></defs><g
     transform="matrix(1.3333333,0,0,-1.3333333,0,66.666667)"
     id="g10"><g
       id="g12" /><g
       id="g14"><g
         clip-path="url(#clipPath20)"
         id="g16"><path
           id="path22"
           style="fill:#000000;fill-opacity:1;fill-rule:nonzero;stroke:none"
           d="M -5,-4.652 H 54.652 V 55 H -5 Z" /></g></g></g></svg>