<?xml version="1.0" encoding="UTF-8" standalone="no"?>
<svg
   xmlns:dc="http://purl.org/dc/elements/1.1/"
   xmlns:cc="http://creativecommons.org/ns#"
   xmlns:rdf="http://www.w3.org/1999/02/22-rdf-syntax-ns#"
   xmlns:svg="http://www.w3.org/2000/svg"
   xmlns="http://www.w3.org/2000/svg"
   viewBox="0 0 29.333332 26.666668"
   height="26.666668"
   width="29.333332"
   xml:space="preserve"
   id="svg2"
   version="1.1"><metadata
     id="metadata8"><rdf:RDF><cc:Work
         rdf:about=""><dc:format>image/svg+xml</dc:format><dc:type
           rdf:resource="http://purl.org/dc/dcmitype/StillImage" /></cc:Work></rdf:RDF></metadata><defs
     id="defs6"><clipPath
       id="clipPath20"
       clipPathUnits="userSpaceOnUse"><path
         id="path18"
         d="m 11.12123,13.17704 c -1.237156,0 -2.240121,-1.00291 -2.240121,-2.24012 0,-1.237157 1.002914,-2.240122 2.240121,-2.240122 1.23716,0 2.24012,1.002914 2.24012,2.240122 0,1.23721 -1.00291,2.24012 -2.24012,2.24012 z m 0,-3.413472 c -0.64806,0 -1.173402,0.525342 -1.173402,1.173402 0,0.64806 0.525342,1.1734 1.173402,1.1734 v 0 c 0.64806,0 1.1734,-0.52534 1.1734,-1.1734 0,-0.64806 -0.52534,-1.173402 -1.1734,-1.173402 z" /></clipPath><clipPath
       id="clipPath30"
       clipPathUnits="userSpaceOnUse"><path
         id="path28"
         d="M 20.05502,18.29732 5.494334,19.95069 C 4.929225,20.03103 4.356664,19.86606 3.920951,19.49732 3.48529,19.15951 3.206028,18.65877 3.147582,18.1106 L 2.880928,15.92382 H 2.054167 C 0.8807657,15.92382 7.146172e-4,14.8838 7.146172e-4,13.7104 V 2.803248 C -0.02883991,1.684311 0.8542738,0.7532158 1.973262,0.7236613 2.000213,0.7229654 2.027216,0.7229654 2.054167,0.7229654 H 16.69484 c 1.1734,0 2.24012,0.9068816 2.24012,2.0802826 v 0.426678 c 0.36379,0.070287 0.7089,0.21561 1.01337,0.426677 0.43209,0.363791 0.70875,0.878979 0.77337,1.440056 l 1.22675,10.827161 c 0.12505,1.17611 -0.71896,2.2341 -1.89343,2.3735 z M 17.86829,2.803248 c 0,-0.5867 -0.58675,-1.013378 -1.17345,-1.013378 H 2.054167 C 1.524176,1.774302 1.08193,2.191332 1.066362,2.721323 1.065545,2.748631 1.065936,2.77594 1.067434,2.803248 v 1.973416 l 4.13355,3.040134 C 5.697541,8.198046 6.396947,8.164153 6.854404,7.736812 L 9.761211,5.176696 C 10.20264,4.806065 10.75831,4.598877 11.33465,4.589995 c 0.45061,-0.00551 0.89383,0.114492 1.28008,0.346692 l 5.25356,3.040134 V 2.803248 Z m -5e-5,6.426961 -5.81362,-3.386826 C 11.55541,5.547633 10.92354,5.601179 10.48119,5.97671 L 7.547735,8.563522 C 6.706988,9.285949 5.478153,9.330255 4.587587,8.670204 L 1.067434,6.110088 V 13.7104 c 0,0.5867 0.400032,1.1467 0.986733,1.1467 H 16.69484 c 0.62682,-0.02598 1.13302,-0.5207 1.1734,-1.1467 V 9.230209 Z m 3.01451,6.837611 c -3.6e-4,-0.0035 -6.7e-4,-0.0071 -0.0011,-0.01062 L 19.62829,5.230037 C 19.63043,4.949295 19.50241,4.683406 19.2816,4.510009 19.17491,4.403327 18.9349,4.349986 18.9349,4.296645 V 13.7104 c -0.04211,1.2149 -1.02481,2.18591 -2.24012,2.21342 H 3.947596 l 0.24001,2.0801 c 0.052065,0.26936 0.192895,0.51345 0.400032,0.69338 0.233884,0.16171 0.516668,0.2371 0.800065,0.21337 L 19.92174,17.2306 c 0.58639,-0.05569 1.0167,-0.57628 0.96101,-1.16278 z" /></clipPath></defs><g
     transform="matrix(1.3333333,0,0,-1.3333333,0,26.666667)"
     id="g10"><g
       id="g12" /><g
       id="g14"><g
         clip-path="url(#clipPath20)"
         id="g16"><path
           id="path22"
           style="fill:#000000;fill-opacity:1;fill-rule:nonzero;stroke:none"
           d="M 3.881109,18.17704 H 18.36135 V 3.696798 H 3.881109 Z" /></g></g><g
       id="g24"><g
         clip-path="url(#clipPath30)"
         id="g26"><path
           id="path32"
           style="fill:#000000;fill-opacity:1;fill-rule:nonzero;stroke:none"
           d="M -5.000006,24.97061 H 26.96073 V -4.277035 H -5.000006 Z" /></g></g></g></svg>