<?xml version="1.0" encoding="UTF-8" standalone="no"?>
<svg
   xmlns:dc="http://purl.org/dc/elements/1.1/"
   xmlns:cc="http://creativecommons.org/ns#"
   xmlns:rdf="http://www.w3.org/1999/02/22-rdf-syntax-ns#"
   xmlns:svg="http://www.w3.org/2000/svg"
   xmlns="http://www.w3.org/2000/svg"
   viewBox="0 0 29.333332 29.333332"
   height="29.333332"
   width="29.333332"
   xml:space="preserve"
   id="svg2"
   version="1.1"><metadata
     id="metadata8"><rdf:RDF><cc:Work
         rdf:about=""><dc:format>image/svg+xml</dc:format><dc:type
           rdf:resource="http://purl.org/dc/dcmitype/StillImage" /></cc:Work></rdf:RDF></metadata><defs
     id="defs6"><clipPath
       id="clipPath20"
       clipPathUnits="userSpaceOnUse"><path
         id="path18"
         d="m 20.88868,15.31455 c -1.21795,0.73505 -3.18952,1.4423 -5.66515,0.63798 -0.13259,-0.04311 -0.26359,-0.08965 -0.39253,-0.1395 0.0076,0.13808 0.01145,0.27706 0.01145,0.41651 0,2.60067 -1.27303,4.25203 -2.34098,5.17937 -0.85888,0.74577 -2.15198,0.74555 -3.007949,-5.6e-4 -1.068165,-0.9312 -2.341452,-2.58552 -2.341452,-5.17881 0,-0.13949 0.00382,-0.27864 0.011453,-0.41681 C 7.034323,15.86275 6.903065,15.90942 6.770177,15.95257 4.296866,16.7562 2.332888,16.05582 1.120897,15.32669 0.1433258,14.73844 -0.252421,13.50006 0.2004616,12.44601 0.7574498,11.14965 1.937098,9.436775 4.393851,8.638547 4.52734,8.59518 4.661643,8.555631 4.796204,8.519985 4.707069,8.410775 4.620593,8.298477 4.537077,8.183519 4.055026,7.520023 3.698699,6.809429 3.47792,6.071468 3.409975,5.844297 2.980206,4.01029 3.379991,2.64598 3.643708,1.505924 4.698919,0.746601 5.841677,0.8516074 7.246737,0.9807205 9.240356,1.573354 10.75866,3.663186 c 0.08279,0.113928 0.1621,0.229787 0.23781,0.347104 0.07566,-0.11736 0.15502,-0.233219 0.23776,-0.347104 1.5183,-2.089832 3.51197,-2.6824226 4.91698,-2.8115786 0.07065,-0.006477 0.14108,-0.009694 0.21096,-0.009694 1.05903,0 2.00284,0.7325558 2.24417,1.7753278 0.31892,1.377993 0.3782,3.462205 -1.15044,5.566192 -0.08352,0.114915 -0.16995,0.227171 -0.259,0.336295 0.13482,0.035689 0.26934,0.07528 0.40313,0.118733 2.43496,0.79115 3.62379,2.5294988 4.19236,3.8485188 0.44499,1.03252 0.05649,2.24807 -0.90371,2.82757 z M 9.27451,10.05384 C 8.133209,9.447692 6.920318,9.234077 5.669507,9.418996 5.647674,9.421484 5.64347,9.422942 5.639009,9.423628 5.299626,9.475488 4.955481,9.557717 4.616098,9.667957 2.465184,10.3668 1.43318,11.86447 0.9462818,12.99779 0.6620183,13.6594 0.9089205,14.43584 1.520642,14.80379 2.579499,15.44077 4.296318,16.0525 6.461987,15.34881 6.732138,15.261 6.993625,15.15651 7.243144,15.03829 7.723264,12.59548 9.356739,11.23833 10.2248,10.6741 9.994541,10.49184 9.67386,10.26591 9.27451,10.05384 Z m 1.4074,1.36703 c -0.76854,0.51182 -2.23065,1.75071 -2.601347,3.94456 -0.00442,0.02235 -0.00433,0.02771 -0.00523,0.03307 -0.05512,0.3378 -0.08313,0.68936 -0.08313,1.04496 4.3e-5,2.27046 1.11329,3.71751 2.04711,4.53166 0.53485,0.46626 1.3435,0.46605 1.88085,-5.6e-4 0.93309,-0.8102 2.0453,-2.25399 2.0453,-4.5311 0,-0.28345 -0.01801,-0.56415 -0.05319,-0.83748 -2.17587,-1.21152 -2.96196,-3.18515 -3.23036,-4.18511 z m 7.07764,-8.396866 c -0.16099,-0.69541 -0.82294,-1.169997 -1.54014,-1.104325 -1.22833,0.112898 -2.97162,0.631539 -4.30097,2.461257 -0.16759,0.23073 -0.31888,0.47004 -0.45177,0.713554 1.04981,2.26008 0.52538,4.319929 0.15455,5.28708 0.91907,0.03753 2.81909,-0.10441 4.40486,-1.644717 0.01159,-0.01497 0.02407,-0.029425 0.03779,-0.042937 C 16.30923,8.451561 16.54039,8.18171 16.75092,7.891913 18.08936,6.049798 18.03815,4.22793 17.75955,3.024004 Z M 5.660118,1.772352 C 4.948998,1.710563 4.293084,2.193461 4.133914,2.895853 3.861712,4.098955 3.816263,5.917186 5.145636,7.746888 5.313286,7.977575 5.494132,8.195411 5.684663,8.397045 8.158535,8.097024 9.955509,9.232315 10.76073,9.883856 11.08043,9.021374 11.53258,7.170483 10.55769,5.18634 10.54703,5.170699 10.53714,5.154361 10.52853,5.137131 10.37386,4.82889 10.18865,4.525655 9.978092,4.23588 8.639739,2.393699 6.891213,1.87942 5.660118,1.772352 Z M 20.97009,13.04108 c -0.4984,-1.15631 -1.53954,-2.67985 -3.66917,-3.371783 -0.26955,-0.087591 -0.54206,-0.157166 -0.8129,-0.208211 -1.82449,1.695024 -3.94434,1.832894 -4.97845,1.779104 0.07905,0.2828 0.20576,0.6541 0.40415,1.06036 0.56707,1.16129 1.42278,2.04698 2.54332,2.63262 0.01956,0.01085 0.02513,0.01261 0.03041,0.01531 0.30387,0.15665 0.62939,0.29177 0.96753,0.40162 2.16743,0.70429 3.89146,0.08609 4.95623,-0.55647 0.59465,-0.35881 0.83491,-1.11222 0.55888,-1.75255 z" /></clipPath></defs><g
     transform="matrix(1.3333333,0,0,-1.3333333,0,29.333333)"
     id="g10"><g
       id="g12" /><g
       id="g14"><g
         clip-path="url(#clipPath20)"
         id="g16"><path
           id="path22"
           style="fill:#000000;fill-opacity:1;fill-rule:nonzero;stroke:none"
           d="m -4.986221,-4.158087 h 31.96211 v 31.12617 h -31.96211 z" /></g></g></g></svg>