<?xml version="1.0" encoding="UTF-8" standalone="no"?>
<svg
   xmlns:dc="http://purl.org/dc/elements/1.1/"
   xmlns:cc="http://creativecommons.org/ns#"
   xmlns:rdf="http://www.w3.org/1999/02/22-rdf-syntax-ns#"
   xmlns:svg="http://www.w3.org/2000/svg"
   xmlns="http://www.w3.org/2000/svg"
   viewBox="0 0 29.333332 29.333332"
   height="29.333332"
   width="29.333332"
   xml:space="preserve"
   id="svg2"
   version="1.1"><metadata
     id="metadata8"><rdf:RDF><cc:Work
         rdf:about=""><dc:format>image/svg+xml</dc:format><dc:type
           rdf:resource="http://purl.org/dc/dcmitype/StillImage" /></cc:Work></rdf:RDF></metadata><defs
     id="defs6"><clipPath
       id="clipPath20"
       clipPathUnits="userSpaceOnUse"><path
         id="path18"
         d="m 21.84804,1.880185 -6.45008,6.450074 c 1.07067,1.428778 1.71315,3.195701 1.71315,5.114181 C 17.11111,18.16222 13.27333,22 8.555556,22 3.837778,22 0,18.16222 0,13.44444 0,8.726667 3.837778,4.888889 8.555556,4.888889 c 1.918484,0 3.685404,0.642481 5.114184,1.713148 L 20.11981,0.151963 Z M 0.8148148,13.44444 c 0,4.26841 3.4723332,7.74075 7.7407412,7.74075 4.268404,0 7.740744,-3.47234 7.740744,-7.74075 0,-4.268403 -3.47234,-7.740736 -7.740744,-7.740736 -4.268408,0 -7.7407412,3.472333 -7.7407412,7.740736 z M 14.49026,7.295444 c 0.07252,0.070075 0.14381,0.141371 0.21389,0.213889 0.05948,0.061519 0.12385,0.118148 0.18129,0.181297 L 20.69589,1.880185 20.11941,1.303704 14.30937,7.114556 C 14.37252,7.172 14.42874,7.23637 14.49026,7.295444 Z" /></clipPath></defs><g
     transform="matrix(1.3333333,0,0,-1.3333333,0,29.333333)"
     id="g10"><g
       id="g12" /><g
       id="g14"><g
         clip-path="url(#clipPath20)"
         id="g16"><path
           id="path22"
           style="fill:#000000;fill-opacity:1;fill-rule:nonzero;stroke:none"
           d="m -5,-4.848037 h 31.84804 v 31.84804 H -5 Z" /></g></g></g></svg>