<?xml version="1.0" encoding="UTF-8" standalone="no"?>
<svg
   xmlns:dc="http://purl.org/dc/elements/1.1/"
   xmlns:cc="http://creativecommons.org/ns#"
   xmlns:rdf="http://www.w3.org/1999/02/22-rdf-syntax-ns#"
   xmlns:svg="http://www.w3.org/2000/svg"
   xmlns="http://www.w3.org/2000/svg"
   viewBox="0 0 29.333332 29.333332"
   height="29.333332"
   width="29.333332"
   xml:space="preserve"
   id="svg2"
   version="1.1"><metadata
     id="metadata8"><rdf:RDF><cc:Work
         rdf:about=""><dc:format>image/svg+xml</dc:format><dc:type
           rdf:resource="http://purl.org/dc/dcmitype/StillImage" /></cc:Work></rdf:RDF></metadata><defs
     id="defs6"><clipPath
       id="clipPath20"
       clipPathUnits="userSpaceOnUse"><path
         id="path18"
         d="m 11,12.46667 c 1.41533,0 2.56667,1.1517 2.56667,2.56666 C 13.56667,16.4483 12.41533,17.6 11,17.6 9.584667,17.6 8.433333,16.4483 8.433333,15.03333 8.433333,13.61837 9.584667,12.46667 11,12.46667 Z m 0,4.4 c 1.0109,0 1.83333,-0.82244 1.83333,-1.83334 C 12.83333,14.02243 12.0109,13.2 11,13.2 c -1.0109,0 -1.833333,0.82243 -1.833333,1.83333 0,1.0109 0.822433,1.83334 1.833333,1.83334 z" /></clipPath><clipPath
       id="clipPath30"
       clipPathUnits="userSpaceOnUse"><path
         id="path28"
         d="m 10.9351,1.922433 5.62503,8.124237 c 2.1098,2.8127 1.80474,7.436 -0.65303,9.8934 C 14.57903,21.2685 12.81317,22 10.9351,22 9.057033,22 7.291167,21.2685 5.9631,19.94043 3.505333,17.48303 3.200267,12.85973 5.301633,10.05803 Z M 6.481567,19.42197 c 1.189833,1.18946 2.771266,1.8447 4.453533,1.8447 1.68227,0 3.2637,-0.65524 4.45353,-1.8447 2.21834,-2.21797 2.4915,-6.39357 0.57677,-8.9463 L 10.9351,3.2109 5.896733,10.48667 C 3.990067,13.0284 4.2636,17.204 6.481567,19.42197 Z" /></clipPath><clipPath
       id="clipPath40"
       clipPathUnits="userSpaceOnUse"><path
         id="path38"
         d="m 15.4429,6.230767 c -0.20167,0.024566 -0.38353,-0.1199 -0.407,-0.3212 -0.02347,-0.2013 0.12027,-0.383534 0.3212,-0.407 3.85587,-0.453934 5.90957,-1.677134 5.90957,-2.3859 0,-0.995134 -3.90574,-2.3833337 -10.26667,-2.3833337 -6.360933,0 -10.2666667,1.3881997 -10.2666667,2.3833337 0,0.708766 2.0536997,1.931966 5.9095667,2.3859 0.200933,0.023466 0.344667,0.206066 0.3212,0.407 -0.023833,0.2013 -0.2057,0.3465 -0.407,0.3212 C 2.696467,5.7761 0,4.4957 0,3.116667 0,1.567867 3.7785,0 11,0 18.2215,0 22,1.567867 22,3.116667 22,4.4957 19.30353,5.7761 15.4429,6.230767 Z" /></clipPath></defs><g
     transform="matrix(1.3333333,0,0,-1.3333333,0,29.333333)"
     id="g10"><g
       id="g12" /><g
       id="g14"><g
         clip-path="url(#clipPath20)"
         id="g16"><path
           id="path22"
           style="fill:#000000;fill-opacity:1;fill-rule:nonzero;stroke:none"
           d="m 3.433333,7.466667 h 15.13333 v 15.13333 H 3.433333 Z" /></g></g><g
       id="g24"><g
         clip-path="url(#clipPath30)"
         id="g26"><path
           id="path32"
           style="fill:#000000;fill-opacity:1;fill-rule:nonzero;stroke:none"
           d="m -1.096481,-3.077567 h 24.06174 v 30.07757 h -24.06174 z" /></g></g><g
       id="g34"><g
         clip-path="url(#clipPath40)"
         id="g36"><path
           id="path42"
           style="fill:#000000;fill-opacity:1;fill-rule:nonzero;stroke:none"
           d="M -5,-5 H 27 V 11.23363 H -5 Z" /></g></g></g></svg>