<?xml version="1.0" encoding="UTF-8" standalone="no"?>
<svg
   xmlns:dc="http://purl.org/dc/elements/1.1/"
   xmlns:cc="http://creativecommons.org/ns#"
   xmlns:rdf="http://www.w3.org/1999/02/22-rdf-syntax-ns#"
   xmlns:svg="http://www.w3.org/2000/svg"
   xmlns="http://www.w3.org/2000/svg"
   viewBox="0 0 29.333332 29.333332"
   height="29.333332"
   width="29.333332"
   xml:space="preserve"
   id="svg2"
   version="1.1"><metadata
     id="metadata8"><rdf:RDF><cc:Work
         rdf:about=""><dc:format>image/svg+xml</dc:format><dc:type
           rdf:resource="http://purl.org/dc/dcmitype/StillImage" /></cc:Work></rdf:RDF></metadata><defs
     id="defs6"><clipPath
       id="clipPath20"
       clipPathUnits="userSpaceOnUse"><path
         id="path18"
         d="m 19.57941,19.41581 c -0.80539,0.81717 -1.79567,1.4515 -2.94305,1.8843 -1.2303,0.46417 -2.65259,0.69978 -4.22667,0.69978 -0.35249,0 -0.7181,-0.01223 -1.08718,-0.03535 C 9.528521,21.85023 7.866319,21.45144 6.382987,20.7783 4.976496,20.14 3.755799,19.26922 2.755853,18.18992 0.8152688,16.09627 -0.155861,13.37565 0.02038312,10.52939 0.2201935,7.30919 1.126768,4.798492 2.71397,3.068217 3.487021,2.226199 4.416268,1.58226 5.475575,1.154661 6.511261,0.7367234 7.672652,0.5246831 8.92909,0.5246831 12.3286,0.5246273 13.32414,2.71651 14.051,4.316836 c 0.36997,0.814878 0.69018,1.519911 1.20238,1.781652 0.38393,0.197186 0.95985,0.273972 1.56973,0.356007 1.0994,0.146591 2.34534,0.314123 3.37321,1.208132 1.16139,1.010835 1.7434,2.728433 1.78003,5.251413 0.03663,2.58754 -0.8141,4.89675 -2.39694,6.50177 z m 1.205,-6.48434 C 20.75387,10.76622 20.30538,9.337003 19.41361,8.561271 18.65625,7.90164 17.64407,7.765995 16.66512,7.634594 15.95049,7.539044 15.276,7.448744 14.71058,7.159025 13.82757,6.707469 13.40963,5.78604 12.96634,4.809773 12.6191,4.045378 12.25958,3.254848 11.66277,2.671109 10.99532,2.019352 10.12711,1.716565 8.92909,1.716565 c -4.62278,0 -7.364337,3.155195 -7.719394,8.886535 -0.156196,2.51774 0.703246,4.92467 2.41956,6.77702 0.891719,0.96242 1.984199,1.74078 3.245886,2.31313 1.351596,0.61339 2.873293,0.97727 4.523268,1.08198 0.34377,0.02183 0.68409,0.03317 1.01128,0.03317 2.7372,0 4.86358,-0.74999 6.32156,-2.22891 1.35684,-1.37645 2.08628,-3.38203 2.05316,-5.64802 z" /></clipPath><clipPath
       id="clipPath30"
       clipPathUnits="userSpaceOnUse"><path
         id="path28"
         d="m 16.67914,13.66046 c -1.31407,0 -2.38298,-1.06886 -2.38298,-2.38248 0,-1.314015 1.06891,-2.382928 2.38298,-2.382928 1.31318,0 2.38198,1.068913 2.38198,2.382928 0,1.31362 -1.06886,2.38248 -2.38198,2.38248 z m 0,-3.57392 c -0.65706,0 -1.19194,0.53443 -1.19194,1.19144 0,0.65661 0.53488,1.19104 1.19194,1.19104 0.65611,0 1.19099,-0.53443 1.19099,-1.19104 0,-0.65701 -0.53488,-1.19144 -1.19099,-1.19144 z" /></clipPath><clipPath
       id="clipPath40"
       clipPathUnits="userSpaceOnUse"><path
         id="path38"
         d="m 11.91323,19.61691 c -0.98514,0 -1.78701,-0.80142 -1.78701,-1.78696 0,-0.98515 0.80187,-1.78696 1.78701,-1.78696 0.98515,0 1.78702,0.80187 1.78702,1.78696 0,0.98554 -0.80187,1.78696 -1.78702,1.78696 z m 0,-2.38248 c -0.32808,0 -0.59507,0.26699 -0.59507,0.59552 0,0.32853 0.26699,0.59552 0.59507,0.59552 0.32898,0 0.59597,-0.26699 0.59597,-0.59552 0,-0.32853 -0.26699,-0.59552 -0.59597,-0.59552 z" /></clipPath><clipPath
       id="clipPath50"
       clipPathUnits="userSpaceOnUse"><path
         id="path48"
         d="m 7.148219,17.82995 c -0.98509,0 -1.786957,-0.80148 -1.786957,-1.78696 0,-0.98514 0.801867,-1.78701 1.786957,-1.78701 0.985147,0 1.787013,0.80187 1.787013,1.78701 0,0.98554 -0.801866,1.78696 -1.787013,1.78696 z m 0,-2.38248 c -0.328922,0 -0.595913,0.26699 -0.595913,0.59552 0,0.32848 0.266991,0.59592 0.595913,0.59592 0.328085,0 0.595969,-0.26744 0.595969,-0.59592 0,-0.32853 -0.267884,-0.59552 -0.595969,-0.59552 z" /></clipPath><clipPath
       id="clipPath60"
       clipPathUnits="userSpaceOnUse"><path
         id="path58"
         d="m 4.765294,13.66046 c -0.985147,0 -1.787013,-0.80181 -1.787013,-1.78696 0,-0.98554 0.801866,-1.78696 1.787013,-1.78696 0.985146,0 1.787012,0.80142 1.787012,1.78696 0,0.98515 -0.801866,1.78696 -1.787012,1.78696 z m 5.5e-5,-2.38248 c -0.32814,0 -0.595075,0.26699 -0.595075,0.59552 0,0.32853 0.266991,0.59552 0.595075,0.59552 0.328978,0 0.595969,-0.26699 0.595969,-0.59552 0,-0.32853 -0.266991,-0.59552 -0.595969,-0.59552 z" /></clipPath><clipPath
       id="clipPath70"
       clipPathUnits="userSpaceOnUse"><path
         id="path68"
         d="m 5.361262,8.895052 c -0.985146,0 -1.787013,-0.801475 -1.787013,-1.787013 0,-0.985147 0.801867,-1.787013 1.787013,-1.787013 0.985091,0 1.786957,0.801866 1.786957,1.787013 0,0.985593 -0.801866,1.787013 -1.786957,1.787013 z m 0,-2.382982 c -0.328978,0 -0.595968,0.266991 -0.595968,0.595969 0,0.328531 0.26699,0.596025 0.595968,0.596025 0.328085,0 0.595913,-0.267494 0.595913,-0.596025 C 5.957231,6.779117 5.689347,6.51207 5.361262,6.51207 Z" /></clipPath></defs><g
     transform="matrix(1.3333333,0,0,-1.3333333,0,29.333333)"
     id="g10"><g
       id="g12" /><g
       id="g14"><g
         clip-path="url(#clipPath20)"
         id="g16"><path
           id="path22"
           style="fill:#000000;fill-opacity:1;fill-rule:nonzero;stroke:none"
           d="m -5.000002,-4.475317 h 31.97749 v 31.47521 h -31.97749 z" /></g></g><g
       id="g24"><g
         clip-path="url(#clipPath30)"
         id="g26"><path
           id="path32"
           style="fill:#000000;fill-opacity:1;fill-rule:nonzero;stroke:none"
           d="m 9.29616,3.895052 h 14.76496 v 14.76541 H 9.29616 Z" /></g></g><g
       id="g34"><g
         clip-path="url(#clipPath40)"
         id="g36"><path
           id="path42"
           style="fill:#000000;fill-opacity:1;fill-rule:nonzero;stroke:none"
           d="m 5.126221,11.04299 h 13.57403 V 24.6169 H 5.126221 Z" /></g></g><g
       id="g44"><g
         clip-path="url(#clipPath50)"
         id="g46"><path
           id="path52"
           style="fill:#000000;fill-opacity:1;fill-rule:nonzero;stroke:none"
           d="M 0.3612623,9.255979 H 13.935232 v 13.57397 H 0.3612623 Z" /></g></g><g
       id="g54"><g
         clip-path="url(#clipPath60)"
         id="g56"><path
           id="path62"
           style="fill:#000000;fill-opacity:1;fill-rule:nonzero;stroke:none"
           d="m -2.021719,5.086543 h 13.57403 v 13.57391 h -13.57403 z" /></g></g><g
       id="g64"><g
         clip-path="url(#clipPath70)"
         id="g66"><path
           id="path72"
           style="fill:#000000;fill-opacity:1;fill-rule:nonzero;stroke:none"
           d="m -1.425751,0.321026 h 13.57397 v 13.57403 h -13.57397 z" /></g></g></g></svg>