<?xml version="1.0" encoding="UTF-8" standalone="no"?>
<svg
   xmlns:dc="http://purl.org/dc/elements/1.1/"
   xmlns:cc="http://creativecommons.org/ns#"
   xmlns:rdf="http://www.w3.org/1999/02/22-rdf-syntax-ns#"
   xmlns:svg="http://www.w3.org/2000/svg"
   xmlns="http://www.w3.org/2000/svg"
   viewBox="0 0 20 36"
   height="36"
   width="20"
   xml:space="preserve"
   id="svg2"
   version="1.1"><metadata
     id="metadata8"><rdf:RDF><cc:Work
         rdf:about=""><dc:format>image/svg+xml</dc:format><dc:type
           rdf:resource="http://purl.org/dc/dcmitype/StillImage" /></cc:Work></rdf:RDF></metadata><defs
     id="defs6"><clipPath
       id="clipPath38"
       clipPathUnits="userSpaceOnUse"><path
         style="clip-rule:evenodd"
         id="path36"
         d="m 7.473684,13.6881 c 0.726691,0 1.31579,0.57419 1.31579,1.28249 0,0.7083 -0.589099,1.28249 -1.31579,1.28249 -0.72669,0 -1.315789,-0.57419 -1.315789,-1.28249 0,-0.7083 0.589099,-1.28249 1.315789,-1.28249 z" /></clipPath></defs><g
     transform="matrix(1.3333333,0,0,-1.3333333,0,36)"
     id="g10"><g
       id="g12" /><g
       id="g14"><g
         transform="matrix(1,0,0,-1,1,26)"
         id="g16"><path
           id="path18"
           style="fill:none;stroke:#000000;stroke-width:1.29460502;stroke-linecap:butt;stroke-linejoin:miter;stroke-miterlimit:10;stroke-dasharray:none;stroke-opacity:1"
           d="m 6.5,22.00752 c 1.010485,0 6.5,-4.92655 6.5,-11.00376 C 13,4.926552 7.67722,0 6.5,0 5.32278,0 0,4.926552 0,11.00376 0,17.08097 5.489515,22.00752 6.5,22.00752 Z" /></g><g
         transform="matrix(1,0,0,-1,6.777512,9.327633)"
         id="g20"><path
           id="path22"
           style="fill:none;stroke:#000000;stroke-width:1.29460502;stroke-linecap:square;stroke-linejoin:miter;stroke-miterlimit:10;stroke-dasharray:none;stroke-opacity:1"
           d="M 0.6698565,0.1880985 V 7.720588" /></g><g
         transform="matrix(1,0,0,-1,6.777512,25.02531)"
         id="g24"><path
           id="path26"
           style="fill:none;stroke:#000000;stroke-width:1.29460502;stroke-linecap:square;stroke-linejoin:miter;stroke-miterlimit:10;stroke-dasharray:none;stroke-opacity:1"
           d="M 0.6698565,0.02564979 V 4.839261" /></g><g
         transform="matrix(1,0,0,-1,2.263158,20.10055)"
         id="g28"><path
           id="path30"
           style="fill:none;stroke:#000000;stroke-width:1.81244695;stroke-linecap:butt;stroke-linejoin:miter;stroke-miterlimit:10;stroke-dasharray:none;stroke-opacity:1"
           d="m 5.263158,10.25992 c 2.906762,0 5.263162,-2.296763 5.263162,-5.129961 C 10.52632,2.296761 8.16992,0 5.263158,0 2.356396,0 0,2.296761 0,5.129959 0,7.963157 2.356396,10.25992 5.263158,10.25992 Z" /></g></g><g
       id="g32"><g
         clip-path="url(#clipPath38)"
         id="g34"><path
           id="path40"
           style="fill:#000000;fill-opacity:1;fill-rule:nonzero;stroke:none"
           d="m 1.157895,8.688098 h 12.63158 v 12.56498 H 1.157895 Z" /></g></g><g
       id="g42"><g
         transform="matrix(1,0,0,-1,6.157895,16.25308)"
         id="g44"><path
           id="path46"
           style="fill:none;stroke:#000000;stroke-width:1.81244695;stroke-linecap:butt;stroke-linejoin:miter;stroke-miterlimit:10;stroke-dasharray:none;stroke-opacity:1"
           d="m 1.315789,2.564979 c 0.726691,0 1.31579,-0.57419 1.31579,-1.282489 C 2.631579,0.5741902 2.04248,0 1.315789,0 0.589099,0 0,0.5741902 0,1.28249 0,1.990789 0.589099,2.564979 1.315789,2.564979 Z" /></g></g></g></svg>