<?xml version="1.0" standalone="no"?>
<!DOCTYPE svg PUBLIC "-//W3C//DTD SVG 20010904//EN"
 "http://www.w3.org/TR/2001/REC-SVG-20010904/DTD/svg10.dtd">
<svg version="1.0" xmlns="http://www.w3.org/2000/svg"
 width="331.000000pt" height="332.000000pt" viewBox="0 0 331.000000 332.000000"
 preserveAspectRatio="xMidYMid meet">

<g transform="translate(0.000000,332.000000) scale(0.100000,-0.100000)"
fill="#000000" stroke="none">
<path d="M1388 2464 c-5 -4 -8 -83 -8 -175 0 -145 3 -176 21 -223 25 -68 105
-146 170 -165 81 -24 88 -29 98 -68 29 -111 22 -203 -21 -274 l-20 -33 -20 39
c-11 22 -30 51 -42 63 -49 54 -180 97 -225 73 -16 -9 -21 -21 -21 -55 0 -111
74 -212 179 -243 l56 -17 0 -90 c0 -89 1 -94 48 -188 29 -59 50 -118 54 -148
l6 -50 -250 0 c-211 0 -253 -2 -263 -15 -10 -12 -10 -18 0 -30 11 -13 78 -15
519 -13 l506 3 0 25 0 25 -227 3 -228 2 0 33 c0 18 -4 46 -9 64 -9 30 -8 32
22 38 120 26 205 128 207 246 0 62 -15 74 -86 65 -91 -10 -165 -62 -199 -136
-22 -49 -33 -42 -44 31 -12 72 6 136 68 246 28 49 55 111 61 138 12 53 6 142
-15 211 l-12 40 49 18 c63 22 122 76 156 140 26 50 27 55 27 236 l0 185 -61 0
c-50 0 -69 -5 -109 -30 -27 -17 -64 -49 -81 -72 l-32 -42 -27 39 c-41 59 -113
101 -182 107 -32 3 -61 2 -65 -3z m120 -73 c48 -25 87 -66 106 -113 23 -54 23
-328 1 -328 -30 0 -93 40 -124 77 -44 53 -51 88 -51 246 0 153 0 153 68 118z
m380 -134 c-3 -151 -4 -155 -33 -202 -34 -55 -65 -80 -121 -100 l-39 -13 -3
130 c-3 159 10 217 64 272 38 39 84 65 117 66 18 0 19 -10 15 -153z m-455
-618 c68 -18 126 -83 142 -156 6 -30 5 -33 -19 -33 -82 0 -176 93 -176 175 0
28 1 29 53 14z m447 -363 c0 -81 -96 -175 -178 -176 -21 0 -23 3 -17 33 16 73
71 138 134 157 48 15 61 12 61 -14z"/>
</g>
</svg>
