<?xml version="1.0" standalone="no"?>
<!DOCTYPE svg PUBLIC "-//W3C//DTD SVG 20010904//EN"
 "http://www.w3.org/TR/2001/REC-SVG-20010904/DTD/svg10.dtd">
<svg version="1.0" xmlns="http://www.w3.org/2000/svg"
 width="332.000000pt" height="331.000000pt" viewBox="0 0 332.000000 331.000000"
 preserveAspectRatio="xMidYMid meet">

<g transform="translate(0.000000,331.000000) scale(0.100000,-0.100000)"
fill="#000000" stroke="none">
<path d="M1520 2412 c-52 -25 -122 -99 -164 -175 -42 -75 -91 -196 -101 -251
-4 -20 -11 -34 -15 -31 -4 2 -29 86 -56 186 -50 188 -66 225 -96 214 -22 -9
-22 -10 -167 -545 -119 -434 -119 -434 -105 -482 27 -90 18 -116 184 497 88
325 97 354 103 335 3 -8 28 -96 55 -195 l49 -180 -5 -130 c-3 -103 -1 -142 13
-188 18 -62 71 -148 110 -179 14 -11 25 -24 25 -29 0 -5 -49 -9 -110 -9 -103
0 -110 1 -110 20 0 11 16 37 35 59 19 21 35 46 35 54 0 20 -27 36 -51 30 -18
-5 -19 3 -19 110 0 108 -1 116 -20 122 -38 12 -50 -11 -50 -98 l0 -80 -23 21
c-30 28 -64 28 -72 1 -6 -17 4 -32 44 -73 49 -50 51 -53 51 -109 l0 -57 -100
0 c-63 0 -100 -4 -100 -10 0 -6 7 -24 15 -40 15 -30 17 -30 100 -30 l85 0 0
-105 c0 -101 1 -105 27 -130 15 -14 31 -25 35 -25 5 0 8 58 8 129 l0 130 146
3 c121 2 147 6 154 19 9 15 15 15 72 -1 l63 -17 5 -143 c4 -119 8 -145 22
-153 12 -8 21 -7 32 2 13 11 16 38 16 155 l0 142 58 12 c32 7 83 27 114 46
l56 34 31 -32 c47 -48 137 -99 210 -117 l66 -17 5 -113 c4 -102 7 -114 24
-117 35 -7 46 25 46 134 l0 102 45 6 c129 20 278 143 314 260 33 106 45 206
32 266 -36 167 -179 304 -354 340 -83 17 -201 -2 -285 -46 -14 -7 -28 -12 -29
-10 -2 2 -12 35 -23 75 -54 195 -158 359 -260 411 -48 25 -122 26 -170 2z
m139 -66 c121 -63 237 -330 271 -621 15 -130 13 -177 -11 -248 -35 -107 -140
-203 -241 -222 -35 -7 -38 -6 -38 17 0 16 21 45 65 88 51 51 65 71 63 90 -5
39 -38 37 -78 -5 -18 -19 -38 -35 -42 -35 -4 0 -8 28 -8 63 0 62 0 63 50 112
33 33 50 57 48 70 -4 29 -45 31 -74 4 l-24 -22 0 44 c0 47 -13 69 -41 69 -25
0 -29 -20 -29 -151 0 -65 -3 -119 -6 -119 -4 0 -24 16 -45 35 -44 40 -51 41
-73 19 -21 -20 -13 -33 63 -111 60 -61 61 -63 61 -119 l0 -56 -37 7 c-89 16
-186 94 -229 182 -34 68 -41 163 -25 300 35 283 140 529 256 599 46 27 84 30
124 10z m702 -464 c63 -29 139 -100 171 -159 102 -187 24 -424 -167 -508 -27
-12 -65 -25 -82 -28 -30 -6 -33 -4 -33 18 0 17 20 47 63 91 67 71 79 107 38
112 -16 3 -35 -8 -62 -34 l-39 -38 0 105 c0 112 -11 144 -46 137 -17 -3 -19
-13 -22 -86 -2 -45 -6 -82 -10 -82 -5 0 -23 16 -42 35 -35 37 -58 43 -78 23
-20 -20 -14 -32 58 -107 l71 -73 -3 -52 c-3 -51 -3 -51 -35 -49 -49 4 -133 45
-183 91 l-45 40 21 28 c11 16 31 54 45 84 22 51 24 65 21 195 -1 77 -3 158 -5
179 -2 35 2 42 32 59 65 39 103 47 196 44 65 -2 103 -9 136 -25z"/>
</g>
</svg>
