<?xml version="1.0" standalone="no"?>
<!DOCTYPE svg PUBLIC "-//W3C//DTD SVG 20010904//EN"
 "http://www.w3.org/TR/2001/REC-SVG-20010904/DTD/svg10.dtd">
<svg version="1.0" xmlns="http://www.w3.org/2000/svg"
 width="331.000000pt" height="331.000000pt" viewBox="0 0 331.000000 331.000000"
 preserveAspectRatio="xMidYMid meet">

<g transform="translate(0.000000,331.000000) scale(0.100000,-0.100000)"
fill="#000000" stroke="none">
<path d="M1820 2395 c0 -20 5 -25 25 -25 20 0 25 5 25 25 0 20 -5 25 -25 25
-20 0 -25 -5 -25 -25z"/>
<path d="M1142 2397 c-8 -10 -5 -29 13 -73 40 -97 33 -107 -29 -45 -47 46 -57
52 -70 41 -25 -20 -20 -31 35 -85 29 -27 47 -51 40 -53 -15 -5 -78 16 -120 39
-32 19 -34 19 -47 2 -20 -27 -19 -28 40 -56 57 -27 145 -47 209 -47 l40 0 -7
61 c-12 104 -59 229 -85 229 -5 0 -13 -6 -19 -13z"/>
<path d="M2117 2379 c-47 -39 -92 -126 -107 -208 -16 -89 -12 -95 59 -88 117
13 216 67 256 140 16 30 17 38 6 51 -18 22 -30 20 -40 -6 -18 -47 -86 -99
-155 -119 -27 -8 -23 -2 37 59 37 37 67 72 67 79 0 6 -7 16 -16 23 -13 12 -25
3 -85 -56 -73 -72 -82 -72 -48 1 23 48 71 101 101 111 23 7 23 21 -1 34 -28
15 -32 13 -74 -21z"/>
<path d="M1614 2346 c-8 -21 13 -90 38 -121 25 -32 74 -55 118 -55 28 0 30 3
30 35 0 57 -35 114 -83 136 -50 22 -96 25 -103 5z m100 -67 c26 -20 35 -49 16
-49 -6 0 -22 12 -35 26 -42 45 -28 60 19 23z"/>
<path d="M1490 2265 c0 -20 5 -25 25 -25 20 0 25 5 25 25 0 20 -5 25 -25 25
-20 0 -25 -5 -25 -25z"/>
<path d="M1330 2151 c-44 -23 -71 -68 -73 -123 l-2 -43 40 3 c79 6 134 59 142
136 l6 46 -39 0 c-22 0 -55 -8 -74 -19z m50 -51 c0 -16 -38 -50 -56 -50 -16 0
-12 12 14 43 16 19 42 23 42 7z"/>
<path d="M2400 2150 c0 -11 7 -20 15 -20 13 0 14 4 5 20 -6 11 -13 20 -15 20
-3 0 -5 -9 -5 -20z"/>
<path d="M2340 2085 c0 -20 5 -25 25 -25 20 0 25 5 25 25 0 20 -5 25 -25 25
-20 0 -25 -5 -25 -25z"/>
<path d="M945 1989 c-45 -40 -60 -91 -44 -153 17 -69 30 -74 78 -31 61 56 72
106 39 188 -14 35 -29 34 -73 -4z m28 -106 l-17 -38 -4 32 c-2 18 2 42 9 54
10 20 13 20 20 6 7 -11 4 -29 -8 -54z"/>
<path d="M1557 2004 c-4 -4 -7 -18 -7 -31 0 -18 5 -23 26 -23 22 0 25 4 22 27
-3 27 -26 41 -41 27z"/>
<path d="M1104 1976 c-10 -26 4 -48 28 -44 17 2 23 10 23 28 0 18 -6 26 -23
28 -13 2 -25 -3 -28 -12z"/>
<path d="M2242 1840 c-42 -26 -72 -76 -72 -122 0 -37 1 -38 35 -38 82 0 145
63 145 144 0 35 -1 36 -37 36 -21 0 -53 -9 -71 -20z m48 -52 c0 -16 -31 -48
-47 -48 -21 0 -15 27 9 44 27 19 38 20 38 4z"/>
<path d="M1295 1808 c-81 -29 -135 -106 -135 -191 0 -43 2 -47 23 -47 37 0
112 25 145 49 37 26 69 93 74 151 l3 45 -40 2 c-22 1 -53 -3 -70 -9z m-24 -81
c-14 -18 21 -53 41 -41 7 4 5 -2 -6 -14 -18 -21 -83 -49 -92 -39 -8 8 16 61
38 85 23 24 38 31 19 9z"/>
<path d="M1900 1761 c0 -27 4 -31 26 -31 22 0 25 4 22 28 -2 19 -9 28 -25 30
-20 3 -23 -1 -23 -27z"/>
<path d="M1762 1697 c-39 -40 -53 -83 -42 -132 9 -39 35 -85 49 -85 20 0 80
81 87 116 8 42 -22 127 -47 132 -8 1 -29 -12 -47 -31z m38 -76 c0 -35 -9 -61
-21 -61 -10 0 -12 50 -3 74 10 26 24 18 24 -13z"/>
<path d="M2424 1666 c-10 -26 4 -48 28 -44 17 2 23 10 23 28 0 18 -6 26 -23
28 -13 2 -25 -3 -28 -12z"/>
<path d="M977 1541 c-6 -25 0 -31 30 -31 18 0 23 5 23 25 0 20 -5 25 -24 25
-15 0 -26 -7 -29 -19z"/>
<path d="M1034 1486 c-10 -26 4 -48 28 -44 17 2 23 10 23 28 0 18 -6 26 -23
28 -13 2 -25 -3 -28 -12z"/>
<path d="M1579 1399 c-6 -90 27 -184 81 -233 50 -45 94 -63 172 -72 l61 -7 -6
62 c-13 151 -98 234 -259 257 -37 5 -48 3 -49 -7z m122 -64 c52 -19 84 -47
111 -98 26 -52 15 -58 -27 -17 -33 32 -36 33 -52 17 -16 -16 -15 -18 7 -42 27
-28 12 -33 -26 -9 -29 20 -69 86 -79 132 -8 38 0 40 66 17z"/>
<path d="M2360 1359 c-155 -40 -252 -110 -313 -226 -38 -74 -67 -170 -67 -227
0 -32 2 -35 22 -27 18 6 27 25 43 92 12 46 31 105 44 130 28 59 94 127 157
161 49 26 172 63 181 54 3 -2 -25 -33 -62 -68 -65 -62 -66 -64 -47 -81 19 -17
21 -17 48 7 31 26 83 107 109 169 l15 37 -27 -1 c-16 0 -62 -9 -103 -20z"/>
<path d="M1177 1362 c-15 -3 -17 -10 -12 -35 18 -96 71 -147 150 -147 34 0 35
1 35 36 0 50 -27 102 -64 121 -38 20 -85 30 -109 25z m95 -79 c20 -18 24 -43
6 -43 -16 0 -48 31 -48 47 0 18 20 16 42 -4z"/>
<path d="M1434 1345 c-10 -25 4 -47 28 -43 30 4 30 38 0 49 -17 6 -24 5 -28
-6z"/>
<path d="M2217 1102 c-16 -18 -16 -20 1 -35 16 -15 21 -15 38 -2 19 14 19 14
-2 35 -20 20 -21 20 -37 2z"/>
<path d="M1143 1045 c-18 -8 -33 -18 -33 -23 0 -18 29 -34 51 -27 17 6 20 4
15 -12 -4 -12 1 -22 13 -30 26 -16 42 4 49 62 l5 45 -34 0 c-19 -1 -49 -7 -66
-15z"/>
<path d="M1360 1025 c0 -23 4 -26 28 -23 19 2 27 9 27 23 0 14 -8 21 -27 23
-24 3 -28 0 -28 -23z"/>
<path d="M1290 915 c0 -12 28 -35 44 -35 3 0 6 11 6 25 0 20 -5 25 -25 25 -15
0 -25 -6 -25 -15z"/>
</g>
</svg>
