<?xml version="1.0" encoding="UTF-8" standalone="no"?>
<svg
   xmlns:dc="http://purl.org/dc/elements/1.1/"
   xmlns:cc="http://creativecommons.org/ns#"
   xmlns:rdf="http://www.w3.org/1999/02/22-rdf-syntax-ns#"
   xmlns:svg="http://www.w3.org/2000/svg"
   xmlns="http://www.w3.org/2000/svg"
   viewBox="0 0 656 656"
   height="656"
   width="656"
   xml:space="preserve"
   id="svg2"
   version="1.1"><metadata
     id="metadata8"><rdf:RDF><cc:Work
         rdf:about=""><dc:format>image/svg+xml</dc:format><dc:type
           rdf:resource="http://purl.org/dc/dcmitype/StillImage" /></cc:Work></rdf:RDF></metadata><defs
     id="defs6"><clipPath
       id="clipPath20"
       clipPathUnits="userSpaceOnUse"><path
         id="path18"
         d="M 245.929,491.999 C 110.106,491.999 0,381.894 0,246.071 0,110.248 110.106,0.143 245.929,0.143 c 54.538,0 104.919,17.764 145.702,47.806 -2.169,0.146 -4.286,1.097 -5.853,2.847 l -40.28,45.014 -21.693,-33.293 -17.911,90.492 92.117,-28.655 -39.651,-17.035 40.28,-45.016 c 1.869,-2.086 2.503,-4.825 2.012,-7.378 55.635,45.087 91.206,113.957 91.206,191.147 0,135.822 -110.106,245.927 -245.929,245.927 z" /></clipPath><clipPath
       id="clipPath30"
       clipPathUnits="userSpaceOnUse"><path
         id="path28"
         d="m 91.849,228.654 2.255,-12.53 0.25,-0.084 2.757,12.614 18.21,57.806 h 12.53 l 18.211,-57.806 2.924,-13.7 h 0.25 l 2.84,13.7 14.619,57.806 h 15.371 l -26.23,-90.385 h -12.531 l -17.876,55.718 -3.926,16.123 h -0.25 L 117.494,251.793 99.952,196.075 H 87.338 l -26.23,90.385 h 15.454 z" /></clipPath><clipPath
       id="clipPath40"
       clipPathUnits="userSpaceOnUse"><path
         id="path38"
         d="m 221.329,228.654 2.255,-12.53 0.25,-0.084 2.757,12.614 18.21,57.806 h 12.531 l 18.211,-57.806 2.922,-13.7 h 0.252 l 2.84,13.7 14.619,57.806 h 15.369 l -26.229,-90.385 h -12.531 l -17.877,55.718 -3.926,16.123 h -0.25 l -3.76,-16.123 -17.542,-55.718 h -12.614 l -26.23,90.385 h 15.454 z" /></clipPath><clipPath
       id="clipPath50"
       clipPathUnits="userSpaceOnUse"><path
         id="path48"
         d="m 350.809,228.654 2.255,-12.53 0.251,-0.084 2.757,12.614 18.211,57.806 h 12.53 l 18.211,-57.806 2.923,-13.7 h 0.251 l 2.84,13.7 14.619,57.806 h 15.37 l -26.229,-90.385 h -12.53 l -17.877,55.718 -3.926,16.123 h -0.251 l -3.759,-16.123 -17.543,-55.718 h -12.613 l -26.23,90.385 h 15.454 z" /></clipPath></defs><g
     transform="matrix(1.3333333,0,0,-1.3333333,0,656)"
     id="g10"><g
       id="g12" /><g
       id="g14"><g
         clip-path="url(#clipPath20)"
         id="g16"><path
           id="path22"
           style="fill:#000000;fill-opacity:1;fill-rule:nonzero;stroke:none"
           d="M -5,-4.857 H 496.858 V 496.999 H -5 Z" /></g></g><g
       id="g24"><g
         clip-path="url(#clipPath30)"
         id="g26"><path
           id="path32"
           style="fill:#ffffff;fill-opacity:1;fill-rule:nonzero;stroke:none"
           d="M 56.108,191.075 H 187.066 V 291.46 H 56.108 Z" /></g></g><g
       id="g34"><g
         clip-path="url(#clipPath40)"
         id="g36"><path
           id="path42"
           style="fill:#ffffff;fill-opacity:1;fill-rule:nonzero;stroke:none"
           d="M 185.586,191.075 H 316.545 V 291.46 H 185.586 Z" /></g></g><g
       id="g44"><g
         clip-path="url(#clipPath50)"
         id="g46"><path
           id="path52"
           style="fill:#ffffff;fill-opacity:1;fill-rule:nonzero;stroke:none"
           d="M 315.069,191.075 H 446.027 V 291.46 H 315.069 Z" /></g></g></g></svg>